<svg width="296" height="200" viewBox="0 0 296 200" fill="none" xmlns="http://www.w3.org/2000/svg">
<path d="M281 200H15C6.7 200 0 193.3 0 185V15C0 6.7 6.7 0 15 0H281C289.3 0 296 6.7 296 15V185C296 193.3 289.3 200 281 200Z" fill="url(#paint0_radial_7504_110779)"/>
<mask id="mask0_7504_110779" style="mask-type:luminance" maskUnits="userSpaceOnUse" x="0" y="0" width="296" height="200">
<path d="M281 200H15C6.7 200 0 193.3 0 185V15C0 6.7 6.7 0 15 0H281C289.3 0 296 6.7 296 15V185C296 193.3 289.3 200 281 200Z" fill="white"/>
</mask>
<g mask="url(#mask0_7504_110779)">
<path d="M370.7 49.9C366.1 45.3 358.6 45.3 354 49.9L228.5 175.4C223.9 180 223.9 187.5 228.5 192.1C233.1 196.7 240.6 196.7 245.2 192.1L370.7 66.5999C375.3 61.9999 375.3 54.5 370.7 49.9Z" fill="#0076CF"/>
</g>
<mask id="mask1_7504_110779" style="mask-type:luminance" maskUnits="userSpaceOnUse" x="0" y="0" width="296" height="200">
<path d="M281 200H15C6.7 200 0 193.3 0 185V15C0 6.7 6.7 0 15 0H281C289.3 0 296 6.7 296 15V185C296 193.3 289.3 200 281 200Z" fill="white"/>
</mask>
<g mask="url(#mask1_7504_110779)">
<path d="M288.1 167.7C285.7 165.3 281.8 165.3 279.3 167.7L213.6 233.4C211.2 235.8 211.2 239.7 213.6 242.2C216 244.6 219.9 244.6 222.4 242.2L288.1 176.5C290.5 174 290.5 170.1 288.1 167.7Z" fill="#0076CF"/>
</g>
<mask id="mask2_7504_110779" style="mask-type:luminance" maskUnits="userSpaceOnUse" x="0" y="0" width="296" height="200">
<path d="M281 200H15C6.7 200 0 193.3 0 185V15C0 6.7 6.7 0 15 0H281C289.3 0 296 6.7 296 15V185C296 193.3 289.3 200 281 200Z" fill="white"/>
</mask>
<g mask="url(#mask2_7504_110779)">
<path d="M339.5 -28.2C337.1 -30.6 333.2 -30.6 330.8 -28.2L265.7 36.9C263.3 39.3 263.3 43.2 265.7 45.6C268.1 48 272 48 274.4 45.6L339.5 -19.5C341.9 -21.9 341.9 -25.8 339.5 -28.2Z" fill="#006BCC"/>
</g>
<mask id="mask3_7504_110779" style="mask-type:luminance" maskUnits="userSpaceOnUse" x="0" y="0" width="296" height="200">
<path d="M281 200H15C6.7 200 0 193.3 0 185V15C0 6.7 6.7 0 15 0H281C289.3 0 296 6.7 296 15V185C296 193.3 289.3 200 281 200Z" fill="white"/>
</mask>
<g mask="url(#mask3_7504_110779)">
<path d="M263.9 -40.2C261.6 -42.5 257.8 -42.5 255.4 -40.2L192 23.2C189.7 25.5 189.7 29.2999 192 31.7C194.3 34 198.1 34 200.5 31.7L263.9 -31.8C266.3 -34.1 266.3 -37.9 263.9 -40.2Z" fill="#0070CC"/>
</g>
<mask id="mask4_7504_110779" style="mask-type:luminance" maskUnits="userSpaceOnUse" x="0" y="0" width="296" height="200">
<path d="M281 200H15C6.7 200 0 193.3 0 185V15C0 6.7 6.7 0 15 0H281C289.3 0 296 6.7 296 15V185C296 193.3 289.3 200 281 200Z" fill="white"/>
</mask>
<g mask="url(#mask4_7504_110779)">
<path d="M77.7 115.8C73.5 111.6 66.7 111.6 62.4 115.8L-52 230.2C-56.2 234.4 -56.2 241.2 -52 245.5C-47.8 249.7 -41 249.7 -36.7 245.5L77.8 131C82 126.8 82 120 77.7 115.8Z" fill="#0070CC"/>
</g>
<mask id="mask5_7504_110779" style="mask-type:luminance" maskUnits="userSpaceOnUse" x="0" y="0" width="296" height="200">
<path d="M281 200H15C6.7 200 0 193.3 0 185V15C0 6.7 6.7 0 15 0H281C289.3 0 296 6.7 296 15V185C296 193.3 289.3 200 281 200Z" fill="white"/>
</mask>
<g mask="url(#mask5_7504_110779)">
<path d="M461.4 95.5001C454.7 88.8001 443.7 88.8001 437 95.5001L254 278.5C247.3 285.2 247.3 296.2 254 302.9C260.7 309.6 271.7 309.6 278.4 302.9L461.4 119.9C468.1 113.2 468.1 102.3 461.4 95.5001Z" fill="#707070"/>
</g>
<mask id="mask6_7504_110779" style="mask-type:luminance" maskUnits="userSpaceOnUse" x="0" y="0" width="296" height="200">
<path d="M281 200H15C6.7 200 0 193.3 0 185V15C0 6.7 6.7 0 15 0H281C289.3 0 296 6.7 296 15V185C296 193.3 289.3 200 281 200Z" fill="white"/>
</mask>
<g mask="url(#mask6_7504_110779)">
<path d="M23.0999 137.9C19.7999 134.6 14.6 134.6 11.2999 137.9L-77.2 226.4C-80.5 229.7 -80.5 234.9 -77.2 238.2C-73.9 241.5 -68.7 241.5 -65.4 238.2L23.0999 149.7C26.2999 146.4 26.2999 141.2 23.0999 137.9Z" fill="#0067CE"/>
</g>
<mask id="mask7_7504_110779" style="mask-type:luminance" maskUnits="userSpaceOnUse" x="0" y="0" width="296" height="200">
<path d="M281 200H15C6.7 200 0 193.3 0 185V15C0 6.7 6.7 0 15 0H281C289.3 0 296 6.7 296 15V185C296 193.3 289.3 200 281 200Z" fill="white"/>
</mask>
<g mask="url(#mask7_7504_110779)">
<path d="M215.8 -67.3999C212.3 -70.8999 206.7 -70.8999 203.2 -67.3999L108.4 27.4001C104.9 30.9001 104.9 36.5001 108.4 40.0001C111.9 43.5001 117.5 43.5001 121 40.0001L215.8 -54.7999C219.3 -58.1999 219.3 -63.8999 215.8 -67.3999Z" fill="#0583D1"/>
</g>
<mask id="mask8_7504_110779" style="mask-type:luminance" maskUnits="userSpaceOnUse" x="0" y="0" width="296" height="200">
<path d="M281 200H15C6.7 200 0 193.3 0 185V15C0 6.7 6.7 0 15 0H281C289.3 0 296 6.7 296 15V185C296 193.3 289.3 200 281 200Z" fill="white"/>
</mask>
<g mask="url(#mask8_7504_110779)">
<path d="M153 177.8C151.1 175.9 148 175.9 146.1 177.8L94.7 229.2C92.8 231.1 92.8 234.2 94.7 236.1C96.6 238 99.7 238 101.6 236.1L153 184.7C154.9 182.8 154.9 179.7 153 177.8Z" fill="#00A9D8"/>
</g>
<mask id="mask9_7504_110779" style="mask-type:luminance" maskUnits="userSpaceOnUse" x="0" y="0" width="296" height="200">
<path d="M281 200H15C6.7 200 0 193.3 0 185V15C0 6.7 6.7 0 15 0H281C289.3 0 296 6.7 296 15V185C296 193.3 289.3 200 281 200Z" fill="white"/>
</mask>
<g mask="url(#mask9_7504_110779)">
<path d="M437.2 31.8C432.7 27.3 425.3 27.3 420.8 31.8L297.8 154.8C293.3 159.3 293.3 166.7 297.8 171.2C302.3 175.7 309.7 175.7 314.2 171.2L437.2 48.2001C441.8 43.7001 441.8 36.3 437.2 31.8Z" fill="#919191"/>
</g>
<mask id="mask10_7504_110779" style="mask-type:luminance" maskUnits="userSpaceOnUse" x="0" y="0" width="296" height="200">
<path d="M281 200H15C6.7 200 0 193.3 0 185V15C0 6.7 6.7 0 15 0H281C289.3 0 296 6.7 296 15V185C296 193.3 289.3 200 281 200Z" fill="white"/>
</mask>
<g mask="url(#mask10_7504_110779)">
<path d="M22.3 71.3C18.3 67.3 11.9 67.3 7.9 71.3L-100 179.2C-104 183.2 -104 189.6 -100 193.6C-96 197.6 -89.6 197.6 -85.6 193.6L22.3 85.7C26.3 81.7 26.3 75.3 22.3 71.3Z" fill="#0583D1"/>
</g>
<mask id="mask11_7504_110779" style="mask-type:luminance" maskUnits="userSpaceOnUse" x="0" y="0" width="296" height="200">
<path d="M281 200H15C6.7 200 0 193.3 0 185V15C0 6.7 6.7 0 15 0H281C289.3 0 296 6.7 296 15V185C296 193.3 289.3 200 281 200Z" fill="white"/>
</mask>
<g mask="url(#mask11_7504_110779)">
<path d="M144 -96.4999C136.8 -103.7 125 -103.7 117.8 -96.4999L-78.6 99.9001C-85.8 107.1 -85.8 118.9 -78.6 126.1C-71.4 133.3 -59.6 133.3 -52.4 126.1L144 -70.2999C151.2 -77.4999 151.2 -89.1999 144 -96.4999Z" fill="#0583D1"/>
</g>
<mask id="mask12_7504_110779" style="mask-type:luminance" maskUnits="userSpaceOnUse" x="0" y="0" width="296" height="200">
<path d="M281 200H15C6.7 200 0 193.3 0 185V15C0 6.7 6.7 0 15 0H281C289.3 0 296 6.7 296 15V185C296 193.3 289.3 200 281 200Z" fill="white"/>
</mask>
<g mask="url(#mask12_7504_110779)">
<path d="M434.3 -87.2C428.9 -92.6 420.1 -92.6 414.6 -87.2L267.3 60.2C261.9 65.6 261.9 74.4 267.3 79.9C272.7 85.3 281.5 85.3 287 79.9L434.3 -67.5C439.7 -73 439.7 -81.8 434.3 -87.2Z" fill="#0583D1"/>
</g>
<mask id="mask13_7504_110779" style="mask-type:luminance" maskUnits="userSpaceOnUse" x="0" y="0" width="296" height="200">
<path d="M281 200H15C6.7 200 0 193.3 0 185V15C0 6.7 6.7 0 15 0H281C289.3 0 296 6.7 296 15V185C296 193.3 289.3 200 281 200Z" fill="white"/>
</mask>
<g mask="url(#mask13_7504_110779)">
<path d="M143.8 153.3C138.2 147.7 129 147.7 123.4 153.3L-29.5 306.2C-35.1 311.8 -35.1 321 -29.5 326.6C-23.9 332.2 -14.6999 332.2 -9.09995 326.6L143.8 173.7C149.4 168 149.4 158.9 143.8 153.3Z" fill="#00A9D8"/>
</g>
<path d="M190.5 92.8001C190.4 92.4001 189.9 92.0001 189.4 92.4001C189.2 92.5001 189.1 92.7001 189.1 92.9001C189 93.2001 189 93.5001 189.1 93.8001C189.1 94.2001 189.3 94.4001 189.7 94.4001C189.9 94.4001 190.1 94.4001 190.2 94.4001C190.4 94.4001 190.5 94.2001 190.5 94.0001C190.5 93.8001 190.5 93.6001 190.6 93.4001C190.6 93.2001 190.6 93.0001 190.5 92.8001Z" fill="#213D75"/>
<path d="M190.8 75.4999C190.8 75.0999 190.8 74.6999 190.8 74.2999C190.8 73.9999 190.7 73.6999 190.5 73.4999C190.3 73.1999 190 73.1999 189.9 73.4999C189.7 73.7999 189.6 74.0999 189.6 74.3999C189.6 74.9999 189.6 75.4999 189.6 76.0999C189.6 76.1999 189.6 76.3999 189.6 76.4999C189.6 76.7999 189.8 76.9999 190.2 76.9999C190.3 76.9999 190.4 76.9999 190.5 76.9999C190.7 76.9999 190.8 76.7999 190.8 76.5999C190.8 76.1999 190.8 75.8999 190.8 75.4999Z" fill="#213D75"/>
<path d="M188.7 110.5C188.6 111 188.6 111.4 188.7 111.9C188.7 112.1 188.9 112.2 189.1 112.2C189.5 112.2 189.8 112.3 190.2 112.2C190.4 112.2 190.5 112 190.6 111.9C190.6 111.7 190.6 111.5 190.7 111.3C190.7 111.1 190.7 110.9 190.7 110.7C190.7 110.6 190.7 110.5 190.6 110.4C190.4 110 190.2 109.8 189.8 109.8C189.3 109.8 188.9 110.1 188.7 110.5Z" fill="#213D75"/>
<path d="M190.2 79C190 79 189.7 79.2 189.7 79.4C189.6 79.7 189.6 79.9 189.7 80.2C189.7 80.3 189.8 80.4 190 80.5C190.2 80.5 190.3 80.5 190.5 80.5C190.6 80.5 190.7 80.4 190.7 80.3C190.7 80.2 190.8 80.1 190.8 80C190.8 79.8 190.7 79.7 190.7 79.5C190.5 79.1 190.4 79 190.2 79Z" fill="#213D75"/>
<path d="M199.3 127.2C199.9 127.3 200.5 127.3 201.1 127.2C201.4 127.2 201.5 127 201.5 126.7C201.5 126.4 201.5 126.1 201.5 125.8C201.5 125.5 201.5 125.1 201.5 124.8C201.5 124.5 201.4 124.3 201.2 124.1C201.1 124 201 123.9 200.9 123.9C200.3 123.5 200.2 123.5 199.6 123.9C199.5 123.9 199.5 124 199.4 124.1C199.1 124.3 198.9 124.6 198.9 125C198.9 125.6 198.9 126.2 198.9 126.8C198.9 127 199.1 127.2 199.3 127.2Z" fill="#213D75"/>
<path d="M191.7 80.3999C191.9 80.3999 192 80.3999 192.2 80.3999C192.3 80.3999 192.4 80.2999 192.4 80.1999C192.4 80.0999 192.5 79.9999 192.5 79.8999C192.5 79.5999 192.5 79.3999 192.3 79.2999C192.1 78.9999 191.7 78.8999 191.5 79.1999C191.4 79.2999 191.4 79.2999 191.4 79.3999C191.3 79.6999 191.3 79.8999 191.4 80.1999C191.4 80.2999 191.5 80.3999 191.7 80.3999Z" fill="#213D75"/>
<path d="M191.6 73.5C191.4 73.7 191.3 74 191.3 74.3C191.3 74.7 191.3 75 191.3 75.4C191.3 75.6 191.3 75.9 191.3 76.1C191.3 76.3 191.3 76.5 191.3 76.6C191.3 76.8 191.5 76.9 191.6 77C191.7 77 191.9 77 192 77C192.2 77 192.3 76.8 192.4 76.7C192.4 76.6 192.4 76.5 192.4 76.4C192.4 75.8 192.4 75.2 192.4 74.5C192.4 74.1 192.3 73.7 192 73.4L191.9 73.3C191.8 73.3 191.7 73.3 191.7 73.3C191.7 73.4 191.7 73.4 191.6 73.5Z" fill="#213D75"/>
<path d="M230.6 113.9C230.5 114.3 230.6 114.7 230.9 115.1C231 115.2 231 115.2 231 115.3C231.1 115.6 231.1 115.9 231 116.2C231 116.3 230.9 116.4 230.8 116.4C230.5 116.8 230.5 117.2 230.6 117.6C230.6 117.8 230.7 117.9 230.9 117.9C231 117.9 231.2 118 231.3 118C231.7 118 232.1 118 232.6 118C233 118 233.5 118 233.9 118C234 118 234.2 118 234.3 117.9C234.4 117.9 234.5 117.8 234.5 117.7C234.7 117.3 234.7 116.9 234.5 116.6C234.4 116.4 234.2 116.3 234.1 116.1C233.9 115.8 233.9 115.5 234.1 115.2C234.2 115.1 234.3 115 234.4 114.9C234.6 114.7 234.6 114.4 234.6 114.1C234.6 113.7 234.4 113.4 234.2 113.1C233.8 112.6 233.3 112.3 232.7 112.1C232.5 112 232.3 112 232.2 112.1C231.8 112.3 231.4 112.6 231 112.9C230.9 113.2 230.7 113.5 230.6 113.9Z" fill="#213D75"/>
<path d="M188.1 78.9999C188 79.0999 187.9 79.1999 187.8 79.2999C187.7 79.5999 187.7 79.7999 187.8 80.0999C187.8 80.1999 187.9 80.2999 187.9 80.2999C188.1 80.4999 188.7 80.3999 188.7 79.9999C188.7 79.8999 188.7 79.7999 188.7 79.5999C188.7 79.4999 188.7 79.2999 188.6 79.1999C188.7 78.9999 188.3 78.8999 188.1 78.9999Z" fill="#213D75"/>
<path d="M186.7 109.8C186.3 109.9 186 110.2 185.9 110.5C185.9 110.7 185.9 111 185.9 111.2C185.9 112.2 186 112.3 187 112.2C187.1 112.2 187.2 112.2 187.3 112.2C187.5 112.2 187.7 112 187.7 111.8C187.7 111.6 187.7 111.4 187.8 111.2C187.8 111 187.8 110.8 187.8 110.6C187.7 110.2 187.5 109.9 187.1 109.8C186.9 109.8 186.8 109.8 186.7 109.8Z" fill="#213D75"/>
<path d="M188.1 92.7C187.8 92.2 187.2 92.1 186.8 92.6C186.7 92.7 186.7 92.8 186.7 92.9C186.7 93.1 186.7 93.3 186.6 93.4C186.6 93.6 186.6 93.8 186.6 93.9C186.6 94.1 186.8 94.2 186.9 94.3C187.2 94.4 187.4 94.4 187.7 94.3C187.9 94.3 188 94.1 188.1 94C188.2 93.6 188.2 93.3 188.1 92.9C188.2 92.8 188.1 92.8 188.1 92.7Z" fill="#213D75"/>
<path d="M189.1 117.9C189.4 117.9 189.7 118 190.1 117.9C190.3 117.9 190.5 117.7 190.5 117.5C190.5 117.3 190.5 117.1 190.6 116.9C190.6 116.8 190.6 116.6 190.6 116.5C190.6 116 190.3 115.7 189.9 115.5C189.8 115.5 189.7 115.4 189.6 115.5C189.2 115.6 188.9 115.9 188.8 116.3C188.7 116.8 188.7 117.2 188.8 117.7C188.7 117.7 188.9 117.9 189.1 117.9Z" fill="#213D75"/>
<path d="M193.3 117.6C193.3 117.4 193.3 117.1 193.4 116.9C193.4 116.6 193.4 116.4 193.3 116.1C193.2 115.7 193 115.5 192.6 115.4C192.3 115.3 192.1 115.5 191.9 115.7C191.8 115.8 191.7 115.9 191.7 116.1C191.6 116.6 191.6 117.2 191.7 117.7C191.7 117.9 191.8 118 192 118C192.3 118.1 192.7 118.1 193.1 118C193.1 117.9 193.2 117.7 193.3 117.6Z" fill="#213D75"/>
<path d="M186 117.5C186 117.7 186.2 117.8 186.3 117.9C186.7 118 187 118 187.4 117.9C187.6 117.9 187.7 117.7 187.7 117.5C187.7 117.3 187.7 117.1 187.8 116.9C187.8 116.7 187.8 116.4 187.7 116.1C187.6 115.7 187.3 115.4 186.9 115.3C186.8 115.3 186.7 115.3 186.6 115.3C186.3 115.4 186 115.7 185.9 116.1C185.9 116.6 185.9 117.1 186 117.5Z" fill="#213D75"/>
<path d="M192.5 109.8C192.4 109.8 192.3 109.8 192.2 109.8C191.8 110 191.6 110.2 191.5 110.7C191.5 111.1 191.5 111.5 191.5 111.8C191.5 112.1 191.7 112.2 192 112.2C192.3 112.2 192.5 112.2 192.8 112.2C193.1 112.2 193.2 112 193.3 111.8C193.3 111.6 193.3 111.4 193.3 111.2C193.3 111 193.3 110.8 193.3 110.6C193.2 110.2 193 109.9 192.5 109.8Z" fill="#213D75"/>
<path d="M198.8 133.2C198.8 133.3 198.8 133.4 198.8 133.5C198.8 133.7 199 133.8 199.1 133.9C199.2 133.9 199.2 133.9 199.3 133.9C199.8 133.9 200.3 133.9 200.8 133.9C200.9 133.9 201 133.9 201.1 133.8C201.3 133.7 201.4 133.6 201.4 133.4C201.4 133 201.4 132.7 201.5 132.3C201.5 132.1 201.5 131.9 201.5 131.7C201.5 131.1 201.3 130.7 200.7 130.4C200.6 130.3 200.5 130.3 200.4 130.2C200.3 130.1 200.1 130.1 200 130.2C199.9 130.3 199.7 130.3 199.6 130.4C199.1 130.7 198.8 131.1 198.8 131.7C198.8 132.2 198.8 132.7 198.8 133.2Z" fill="#213D75"/>
<path d="M192.3 92.3C192 92.3 191.7 92.5 191.6 92.8C191.6 92.9 191.6 93 191.6 93.1C191.6 93.2 191.6 93.4 191.6 93.5C191.6 94.2 191.8 94.4 192.6 94.3H192.7C192.9 94.3 193 94.1 193 93.9C193 93.7 193 93.5 193.1 93.3C193.1 93.1 193.1 92.9 193 92.7C192.8 92.5 192.5 92.3 192.3 92.3Z" fill="#213D75"/>
<path d="M232 107C232.4 107.1 232.8 107.1 233.1 107C233.3 107 233.4 106.8 233.4 106.6C233.5 106.1 233.5 105.5 233.4 105C233.3 104.6 232.8 104.2 232.4 104.2C232.3 104.2 232.2 104.2 232.1 104.3C231.7 104.5 231.5 104.8 231.5 105.2C231.5 105.4 231.5 105.6 231.5 105.8C231.5 106.1 231.5 106.3 231.6 106.6C231.6 106.8 231.7 107 232 107Z" fill="#213D75"/>
<path d="M211.6 107C212 107 212.3 107 212.7 107C213 107 213.1 106.8 213.1 106.5C213.1 106.3 213.1 106.1 213.1 105.8C213.1 105.6 213.1 105.3 213 105C212.9 104.6 212.7 104.3 212.3 104.2C212 104.1 211.7 104.3 211.5 104.5C211.3 104.7 211.2 104.9 211.2 105.1C211.1 105.6 211.1 106.1 211.2 106.6C211.2 106.8 211.4 107 211.6 107Z" fill="#213D75"/>
<path d="M205.8 107C206.2 107.1 206.6 107.1 207 107C207.2 107 207.3 106.8 207.3 106.7C207.3 106.4 207.4 106.2 207.4 106C207.4 105.7 207.4 105.4 207.4 105.2C207.3 104.8 206.9 104.3 206.4 104.3C206.3 104.3 206.3 104.3 206.2 104.3C205.8 104.4 205.5 104.7 205.5 105.1C205.4 105.6 205.4 106.2 205.5 106.7C205.5 106.8 205.7 107 205.8 107Z" fill="#213D75"/>
<path d="M210.8 112.2C210.6 112.3 210.3 112.5 210.1 112.6C209.5 113 209.1 113.5 209.1 114.2C209.1 114.5 209.1 114.7 209.3 114.9C209.4 115 209.5 115.1 209.5 115.2C209.7 115.5 209.7 115.9 209.5 116.2C209.4 116.3 209.3 116.4 209.2 116.5C208.9 116.8 208.9 117.2 209 117.6C209 117.7 209.2 117.9 209.3 117.9C209.4 117.9 209.5 117.9 209.7 117.9C210.1 117.9 210.6 117.9 211 117.9C211.5 117.9 212 117.9 212.4 117.9C212.5 117.9 212.7 117.9 212.8 117.8C212.9 117.8 213 117.7 213.1 117.6C213.2 117.2 213.2 116.9 213 116.6C212.9 116.4 212.7 116.2 212.6 116C212.4 115.7 212.5 115.4 212.6 115.2C212.7 115.1 212.7 115 212.8 114.9C213.1 114.6 213.1 114.3 213 113.9C212.9 113.5 212.7 113.1 212.4 112.8C212.1 112.5 211.7 112.3 211.3 112.1C211.3 112.1 211 112.1 210.8 112.2Z" fill="#213D75"/>
<path d="M209.5 104.3C209.4 104.3 209.3 104.3 209.2 104.3C209.1 104.3 208.9 104.4 208.8 104.5C208.6 104.7 208.4 104.9 208.4 105.2C208.4 105.7 208.3 106.2 208.4 106.7C208.4 106.9 208.6 107.1 208.8 107.1C209.2 107.1 209.5 107.1 209.9 107.1C210.2 107.1 210.3 106.9 210.3 106.6C210.3 106.4 210.3 106.1 210.3 105.9C210.3 105.6 210.3 105.4 210.2 105.1C210.1 104.6 209.9 104.4 209.5 104.3Z" fill="#213D75"/>
<path d="M203.7 114.3C203.7 114.5 203.7 114.7 203.8 114.8C203.9 114.9 204 115 204.1 115.1C204.4 115.5 204.4 115.9 204.1 116.3C204 116.4 203.9 116.5 203.9 116.6C203.6 116.9 203.6 117.3 203.7 117.7C203.7 117.9 203.8 118 204 118C204.1 118 204.3 118 204.4 118C204.8 118 205.3 118 205.7 118C206.1 118 206.5 118 207 118C207.1 118 207.3 118 207.4 118C207.6 118 207.7 117.8 207.8 117.7C207.9 117.3 207.9 116.9 207.6 116.6C207.5 116.5 207.4 116.4 207.4 116.3C207.2 116 207.2 115.6 207.4 115.2C207.5 115.1 207.6 115 207.7 114.9C207.9 114.7 207.9 114.5 207.9 114.2C207.8 113.7 207.6 113.2 207.2 112.9C206.8 112.6 206.4 112.4 206.1 112.2C205.9 112.1 205.8 112.1 205.6 112.2C205.3 112.4 205 112.5 204.7 112.7C204.1 113 203.8 113.6 203.7 114.3Z" fill="#213D75"/>
<path d="M205.2 135.3C205.1 135.8 205 136.2 205 136.7C205 136.9 205 137.2 204.9 137.4C204.8 137.8 204.8 138.3 204.8 138.7C204.8 140.5 204.8 142.3 204.8 144.2C204.8 146.1 204.8 148.1 204.8 150C205.1 149.9 205.3 149.7 205.6 149.6C206.6 149 207.7 148.4 208.9 148.5C209.8 148.6 210.7 148.6 211.5 148.9C212.4 149.3 213 149 213.6 148.4C214.1 147.8 214.5 147.8 215.1 148.4C215.5 148.7 215.8 149.1 216.1 149.5C217.4 150.8 218.2 150.8 219.7 149.7C219.9 149.5 220.2 149.4 220.3 149.1C220.5 148.7 220.7 148.2 220.8 147.7C220.9 147.3 220.7 146.9 220.8 146.6C220.8 146.4 221.1 146.2 221.2 146.2C221.3 146.2 221.6 146.4 221.6 146.5C221.8 146.9 222 147.3 222.2 147.6C222.3 147.8 222.7 148 222.8 147.9C223 147.7 223.2 147.4 223.2 147.2C223.2 146.8 223.1 146.4 223 146C222.9 145.5 223 145.1 223.5 144.8C224.3 144.4 225 143.8 225.8 143.3C226 143.2 226.4 143.2 226.7 143.2C227.2 143.3 227.6 143.4 228.1 143.5C228.1 142 228.1 140.5 228.1 138.9C228.1 137.9 228 136.9 227.9 135.9C227.8 135.4 227.7 135 227.6 134.5C227.2 133.4 226.6 132.6 225.7 131.9C224.8 131.2 223.8 130.5 222.7 130C221.8 129.6 220.9 129.1 220.1 128.7C219.1 128.2 218 127.7 217 127.1H216.9C216.7 127 216.5 127 216.3 127.1C215.5 127.5 214.7 127.9 213.9 128.3C212.8 128.8 211.7 129.4 210.6 129.9C209.9 130.3 209.2 130.7 208.5 131.1C207.8 131.5 207.2 132.1 206.6 132.7C205.9 133.3 205.4 134.2 205.2 135.3Z" fill="#213D75"/>
<path d="M198.4 113.7C198.4 113.9 198.3 114 198.3 114.2C198.3 114.4 198.3 114.6 198.4 114.7C198.5 114.8 198.6 114.9 198.7 115C199 115.4 199 115.8 198.7 116.2C198.6 116.3 198.5 116.4 198.5 116.5C198.2 116.8 198.2 117.2 198.3 117.6C198.3 117.8 198.5 117.9 198.6 117.9C198.7 117.9 198.8 117.9 199 117.9C199.5 117.9 200 117.9 200.4 117.9C200.6 117.9 200.9 117.9 201.1 117.9C201.4 117.9 201.8 117.9 202.1 117.9C202.3 117.9 202.4 117.7 202.5 117.6C202.6 117.2 202.6 116.8 202.3 116.5C202.3 116.5 202.3 116.5 202.2 116.4C201.8 115.9 201.8 115.4 202.2 115C202.3 114.9 202.4 114.8 202.4 114.7C202.5 114.6 202.5 114.4 202.5 114.3C202.5 113.8 202.3 113.4 202 113C201.6 112.6 201.2 112.3 200.7 112.1C200.6 112 200.4 112 200.3 112.1C199.8 112.3 199.3 112.6 198.9 113C198.7 113.2 198.5 113.4 198.4 113.7Z" fill="#213D75"/>
<path d="M199.9 107C200.3 107.1 200.7 107.1 201.1 107C201.3 107 201.5 106.8 201.5 106.5C201.6 106.1 201.6 105.6 201.5 105.2C201.5 105.1 201.5 105 201.4 104.9C201.3 104.5 200.7 104.1 200.4 104.2C200 104.3 199.6 104.6 199.5 105.1C199.5 105.2 199.5 105.3 199.5 105.4C199.5 105.5 199.5 105.7 199.5 105.8C199.5 106.1 199.5 106.3 199.6 106.6C199.6 106.8 199.8 107 199.9 107Z" fill="#213D75"/>
<path d="M217.5 107C217.9 107.1 218.3 107.1 218.6 107C218.8 107 218.9 106.8 218.9 106.6C219 106.1 219 105.6 218.9 105.1C218.8 104.6 218.5 104.3 218 104.2C217.9 104.2 217.8 104.2 217.7 104.2C217.3 104.4 217.1 104.6 217 105C217 105.2 217 105.5 217 105.7C217 105.9 217 106.2 217.1 106.5C217.1 106.8 217.3 107 217.5 107Z" fill="#213D75"/>
<path d="M223.1 107C223.5 107.1 223.9 107.1 224.3 107C224.5 107 224.6 106.8 224.6 106.6C224.7 106.1 224.7 105.6 224.6 105.1C224.6 104.7 224.3 104.4 223.9 104.3C223.8 104.3 223.7 104.3 223.6 104.3C223.1 104.3 222.7 104.7 222.6 105.2C222.6 105.4 222.6 105.7 222.6 106C222.6 106.2 222.6 106.5 222.7 106.8C222.8 106.8 223 107 223.1 107Z" fill="#213D75"/>
<path d="M220.4 107C220.8 107 221.1 107 221.5 107C221.8 107 221.9 106.8 221.9 106.5C221.9 106.3 221.9 106.1 221.9 105.9C221.9 105.7 221.9 105.4 221.9 105.2C221.9 105.1 221.9 105.1 221.9 105C221.8 104.5 221.3 104.2 221 104.2C220.7 104.2 220.1 104.5 220 105C219.9 105.5 219.9 106.1 220 106.6C220 106.8 220.1 107 220.4 107Z" fill="#213D75"/>
<path d="M225.5 116.4C225.2 116.8 225.2 117.2 225.3 117.6C225.3 117.8 225.4 117.9 225.6 117.9C225.7 117.9 225.9 118 226 118C226.4 118 226.8 118 227.2 118C227.6 118 228 118 228.4 118C228.5 118 228.7 118 228.8 118C229 118 229.1 117.8 229.2 117.6C229.3 117.2 229.3 116.8 228.9 116.4C228.8 116.3 228.8 116.3 228.7 116.2C228.5 115.8 228.5 115.5 228.7 115.1C228.8 115 228.8 115 228.9 114.9C229.2 114.6 229.2 114.3 229.1 113.9C229 113.5 228.8 113.1 228.5 112.8C228.2 112.5 227.8 112.3 227.4 112.1C227.2 112 227 112 226.8 112.1C226.4 112.3 226 112.6 225.6 112.9C225 113.4 224.9 114.2 225.3 114.8C225.4 114.9 225.5 115.1 225.5 115.2C225.6 115.5 225.6 115.8 225.5 116.1C225.6 116.3 225.5 116.4 225.5 116.4Z" fill="#213D75"/>
<path d="M220 116.5C219.7 116.8 219.7 117.1 219.7 117.5C219.7 117.8 219.9 117.9 220.2 118C220.7 118 221.3 118 221.8 118C222.2 118 222.6 118 223 118C223.2 118 223.4 118 223.6 118C223.8 118 223.9 117.8 224 117.6C224.1 117.2 224.1 116.8 223.7 116.4C223.6 116.3 223.5 116.2 223.5 116C223.4 115.7 223.4 115.4 223.5 115.2C223.6 115.1 223.6 115 223.7 114.9C224 114.6 224 114.3 223.9 113.9C223.8 113.5 223.6 113.1 223.3 112.8C223 112.5 222.6 112.3 222.2 112.1C222 112 221.7 112 221.5 112.1C221.2 112.2 221 112.4 220.7 112.5C220.5 112.6 220.4 112.8 220.2 112.9C219.9 113.2 219.8 113.7 219.8 114.1C219.8 114.4 219.9 114.7 220.1 114.9L220.2 115C220.4 115.3 220.4 115.7 220.2 116C220.2 116.3 220.1 116.4 220 116.5Z" fill="#213D75"/>
<path d="M226.8 107.1C226.9 107.1 227.1 107.1 227.3 107.1C227.5 107.1 227.7 106.9 227.8 106.6C227.9 106.2 227.9 105.8 227.8 105.4C227.8 105.1 227.6 104.9 227.5 104.7C227 104.1 226.1 104.3 225.9 105C225.9 105.1 225.8 105.3 225.8 105.4C225.8 105.6 225.8 105.9 225.8 106.1C225.7 107 225.8 107.1 226.8 107.1Z" fill="#213D75"/>
<path d="M215.3 104.3C215.2 104.3 215.1 104.3 215 104.3C214.5 104.5 214.2 104.8 214.1 105.3C214 105.7 214 106.2 214.1 106.6C214.1 106.8 214.3 107 214.5 107C214.9 107.1 215.4 107.1 215.8 107C216 107 216.1 106.9 216.1 106.7C216.1 106.5 216.2 106.2 216.2 106C216.2 105.7 216.2 105.4 216.1 105.1C216 104.7 215.7 104.4 215.3 104.3Z" fill="#213D75"/>
<path d="M215.9 112.3C215.6 112.5 215.2 112.7 214.9 113C214.6 113.3 214.5 113.8 214.4 114.2C214.4 114.6 214.5 114.8 214.7 115.1C215 115.5 215 115.9 214.7 116.3C214.6 116.4 214.6 116.4 214.5 116.5C214.3 116.7 214.2 117 214.2 117.3C214.2 117.7 214.4 117.9 214.8 117.9C215.3 117.9 215.8 117.9 216.3 117.9C216.7 117.9 217.2 117.9 217.6 117.9C217.7 117.9 217.9 117.9 218 117.8C218.2 117.8 218.3 117.7 218.3 117.5C218.4 117.1 218.4 116.7 218.1 116.4C218 116.2 217.9 116.1 217.8 115.9C217.7 115.6 217.7 115.4 217.9 115.1C218 115 218.1 114.9 218.2 114.8C218.4 114.6 218.5 114.3 218.4 114C218.3 113.5 218.1 113.1 217.7 112.8C217.5 112.6 217.2 112.5 217 112.3C216.8 112.1 216.4 112 215.9 112.3Z" fill="#213D75"/>
<path d="M237.7 109.8C237.3 109.9 237 110.2 237 110.6C237 110.8 237 111 237 111.2C237 111.4 237 111.6 237 111.8C237 112.1 237.2 112.3 237.4 112.3C237.7 112.3 238 112.3 238.3 112.3C238.5 112.3 238.7 112.1 238.7 111.9C238.8 111.5 238.8 111.1 238.7 110.7C238.6 110.3 238.4 110.1 238 109.9C237.9 109.8 237.8 109.8 237.7 109.8Z" fill="#213D75"/>
<path d="M229.8 104.3C229.7 104.2 229.5 104.2 229.4 104.3C229 104.4 228.7 104.7 228.6 105.1C228.5 105.6 228.5 106.1 228.5 106.7C228.5 106.9 228.7 107.1 228.9 107.1C229.3 107.2 229.7 107.2 230.1 107.1C230.3 107.1 230.4 106.9 230.5 106.8C230.5 106.6 230.5 106.3 230.6 106.1C230.6 105.8 230.6 105.5 230.5 105.3C230.5 104.7 230.3 104.4 229.8 104.3Z" fill="#213D75"/>
<path d="M236.3 106.7C236.3 106.4 236.4 106.2 236.4 106C236.4 105.7 236.4 105.4 236.4 105.1C236.4 104.9 236.3 104.8 236.2 104.6C235.6 104 235.4 104 234.8 104.5C234.6 104.6 234.5 104.8 234.4 105.1C234.3 105.6 234.3 106.2 234.4 106.7C234.4 106.9 234.6 107 234.8 107.1C235.2 107.2 235.6 107.2 236 107.1C236.2 107 236.3 106.9 236.3 106.7Z" fill="#213D75"/>
<path d="M197.9 104.2C197.8 104.2 197.7 104.2 197.6 104.2C197.1 104.3 196.7 104.7 196.7 105.3C196.7 105.5 196.7 105.7 196.7 105.8C196.7 106.1 196.7 106.4 196.8 106.7C196.8 106.9 197 107 197.2 107.1C197.6 107.2 198 107.2 198.3 107.1C198.5 107.1 198.7 106.9 198.7 106.7C198.7 106.3 198.7 105.8 198.7 105.4C198.6 104.8 198.3 104.4 197.9 104.2Z" fill="#213D75"/>
<path d="M203.8 104.3C203.6 104.2 203.3 104.2 203.1 104.3C202.7 104.5 202.5 104.8 202.4 105.2C202.3 105.6 202.3 106.1 202.4 106.5C202.4 106.7 202.6 106.9 202.9 106.9C203.2 106.9 203.6 106.9 203.9 106.9C204.3 106.9 204.5 106.7 204.5 106.3C204.5 106.2 204.5 106 204.5 105.9C204.5 105.6 204.5 105.4 204.4 105.1C204.4 104.8 204.2 104.5 203.8 104.3Z" fill="#213D75"/>
<path d="M232 127.2C232.6 127.3 233.1 127.3 233.7 127.2H233.8C234 127.2 234.2 127 234.2 126.8C234.2 126.5 234.2 126.2 234.3 126C234.3 125.6 234.3 125.3 234.3 125C234.2 124.4 233.8 124 233.2 123.8C232.8 123.6 232.5 123.9 232.1 124.1C232 124.1 232 124.2 232 124.2C231.8 124.4 231.6 124.7 231.6 125C231.6 125.6 231.6 126.2 231.6 126.9C231.5 127 231.7 127.2 232 127.2Z" fill="#213D75"/>
<path d="M234.2 132.4C234.2 132.1 234.2 131.9 234.2 131.6C234.2 131.2 234 130.9 233.7 130.7C232.9 130.1 232.7 130.1 231.9 130.8C231.9 130.8 231.9 130.8 231.8 130.9C231.6 131.1 231.5 131.3 231.5 131.5C231.5 132.2 231.4 132.8 231.5 133.5C231.5 133.6 231.5 133.6 231.6 133.7C231.7 133.8 231.7 133.8 231.8 133.9C231.9 133.9 232 134 232 134C232.3 134 232.5 134.1 232.8 134.1C233 133.9 233.3 133.7 233.6 133.6C233.8 133.6 234 133.6 234.2 133.5C234.2 133 234.2 132.7 234.2 132.4Z" fill="#213D75"/>
<path d="M238.5 92.3001C238.2 92.3001 237.9 92.6001 237.9 92.8001C237.9 92.9001 237.9 93.0001 237.9 93.1001C237.9 93.2001 237.9 93.4001 237.9 93.5001C237.9 94.2001 238.1 94.4001 238.9 94.3001H239C239.2 94.3001 239.3 94.1001 239.3 93.9001C239.3 93.7001 239.3 93.5001 239.4 93.3001C239.4 93.1001 239.4 92.9001 239.3 92.7001C239.1 92.5001 238.8 92.2001 238.5 92.3001Z" fill="#213D75"/>
<path d="M200.7 137C200.4 136.8 200 136.8 199.7 137C199.6 137 199.5 137.1 199.5 137.1C199.1 137.3 198.9 137.7 198.8 138.2C198.8 138.7 198.8 139.3 198.8 139.8V139.9C198.8 140.1 199 140.3 199.2 140.3C199.5 140.3 199.9 140.3 200.2 140.3C200.3 140.3 200.5 140.3 200.6 140.3C200.8 140.3 201 140.3 201.1 140.3C201.3 140.3 201.4 140.1 201.5 140C201.5 139.9 201.5 139.8 201.5 139.7C201.5 139.1 201.5 138.5 201.4 137.8C201.4 137.6 201.2 137.4 201.1 137.3C201 137.2 200.9 137.1 200.7 137Z" fill="#213D75"/>
<path d="M181.9 102.7C182.3 102 183.9 101.8 184.4 102.6C184.8 103.4 185.5 103.4 186.2 103.4C186.4 103.4 186.6 103.4 186.8 103.5C187 103.7 187.2 103.9 187.3 104.1C187.3 102.8 187.3 101.5 187.3 100.2C187.3 99.1 187.3 98.1 187.3 97C187.3 96.8 187.3 96.5 187.3 96.3C187.3 96.1 187.2 95.9 187 95.8C186.9 95.7 186.7 95.6 186.5 95.5C186.3 95.4 186.2 95.2 186.2 95C186.2 94.9 186.2 94.8 186.2 94.7C186.2 93.8 186.2 92.8999 186.2 91.8999C186.2 91.7999 186.2 91.6999 186.2 91.5999C186.2 91.2999 186.4 91.1999 186.6 91.0999C186.8 90.9999 186.9 90.9999 187.1 90.8999C187.3 90.7999 187.5 90.8 187.7 90.7C188.1 90.6 188.3 90.3999 188.3 89.8999C188.3 89.7999 188.3 89.7 188.3 89.5C188.3 87.2 188.3 84.9 188.3 82.5C188.3 82.3 188.3 82.0999 188.3 81.8999C188.3 81.6999 188.2 81.5999 188.1 81.3999C188 81.2999 187.9 81.3 187.8 81.2C187.6 81.1 187.5 80.7999 187.5 80.5999C187.5 80.4999 187.5 80.3 187.5 80.2C187.4 80.6 187.2 80.9999 187 81.3999C186.8 81.1999 186.6 81.0999 186.4 80.8999C185.9 80.2999 185.7 80.2999 185.3 81.0999C185.2 81.3999 184.9 81.6999 184.7 81.8999C184.5 82.0999 184.1 82.3 184.1 82.5C184.1 82.8 184.3 83.1999 184.5 83.3999C185.2 84.0999 184.8 85 184.9 85.7C184.9 85.8 184.8 85.8999 184.7 85.8999C184.1 86.1999 183.5 86.5 182.9 86.8C182.7 86.9 182.6 87.1 182.5 87.3C182.5 87.4 182.7 87.6 182.8 87.7C183.7 88.1 184.7 88.6 185.7 89C186.3 89.3 186.4 89.7 185.9 90.2C185.6 90.5 185.5 90.8 185.3 91.2C185.3 91.3 185.2 91.2999 185.2 91.3999C185 91.3999 184.8 91.3999 184.8 91.3999C184.5 91.8999 184.2 92.1999 184.1 92.5999C183.9 93.3999 183.4 93.9 182.7 94.3C181.9 94.8 181.9 95.1 182.8 95.5C183 95.6 183.2 95.7 183.4 95.8C183.9 96.2 183.8 96.5 183.3 96.7C182.6 97 181.9 97.1999 181.2 97.3999C180.5 97.5999 180.3 98 180.3 98.7C180.3 99.3 180.7 99.9999 180.1 100.6C180 100.7 180.2 101 180.3 101.1C180.7 101.8 181.3 102.2 181.9 102.7Z" fill="#213D75"/>
<path d="M186.5 123.4C186.5 123.2 186.5 122.9 186.5 122.7C186.5 122.4 186.4 122.1 186.3 121.8C186.1 121.4 185.9 121.1 185.7 120.7C185.4 120.3 185.3 119.8 185.3 119.3C185.3 116 185.3 112.7 185.3 109.5C185.3 109.3 185.3 109.1 185.3 109C185.3 108.7 185.5 108.6 185.7 108.5C185.9 108.4 186 108.4 186.2 108.3C186.4 108.2 186.5 108.2 186.7 108.1C187 108 187.2 107.8 187.2 107.4C187.2 107.1 187.2 106.9 187.2 106.6C187.2 105.9 187.2 105.2 187.2 104.5C187.1 104.6 187 104.8 187 104.9C186.7 104.8 186.4 104.6 186.2 104.5H186.1C185.7 104.8 185.3 105.2 184.8 105.6C184.8 105.6 184.5 105.5 184.3 105.5C184.1 105.5 183.8 105.6 183.8 105.8C183.7 106.2 183.5 106.2 183.1 106.2C182.8 106.3 182.5 106.5 182 106.7C182.3 106.9 182.5 107 182.6 107C182.5 107.4 182.5 107.7 182.3 108.1C181.9 108 181.4 107.9 181 107.9C180.8 107.9 180.4 108 180.3 108.1C180.1 108.7 179.7 109.5 179.9 110C180.2 111 179.3 111.1 178.9 111.5C178.7 111.7 178.4 111.8 178.2 112C178.1 112.1 178 112.3 177.9 112.5C177.8 112.8 177.7 113.2 177.6 113.5C177.5 113.8 177.3 114.3 177.4 114.4C177.8 114.7 178.2 115 178.7 115.2C179.4 115.4 180.1 115.5 181.1 115.7C180.6 115.9 180.4 116.1 180.1 116.2C180.9 117.3 180.9 117.3 180.8 118.5C180.8 119.2 180.9 120 180.5 120.5C179.9 121.4 180.1 122.3 179.9 123.2C179.7 124 180.1 124.8 180.3 125.6C180.4 126.1 180.3 126.4 179.7 126.3C179.6 126.3 179.4 126.3 179.2 126.3C179.2 126.7 179.2 127.1 179.1 127.5C178.7 128.4 178.7 128.4 179.7 128.6C179.9 128.6 180.1 128.9 180.3 129C180.1 129.2 179.9 129.4 179.7 129.5C179.4 129.6 179.1 129.6 178.8 129.7C179.1 130.1 179.2 130.4 179.4 130.7C179.6 130.7 179.8 130.7 180 130.7C179.9 130.9 179.9 131.1 179.9 131.3C180.2 132 179.8 132.1 179.3 132.2C178.8 132.3 178.4 132.6 177.8 132.8C178.1 133 178.1 133.1 178.2 133.1C178.3 133.4 178.5 133.6 178.6 133.8C178.4 133.9 178.2 134 177.9 134.1C177.6 134.3 177.4 134.5 177.1 134.6C176.8 134.8 176.4 135 176 135.1C175.2 135.3 174.4 135.3 173.6 135.4C173.5 135.4 173.4 135.6 173.2 135.7C173.3 135.8 173.3 136 173.3 136C174.5 137.1 175.6 138.1 176.8 139.1C176.9 139.2 177 139.1 177.1 139.1C178 139.1 178.9 138.9 179.8 139C181 139.2 182.1 139.6 183.3 140.1C183.5 140.2 183.6 140.7 183.7 140.9C183.6 141 183.6 141 183.5 141C182.3 140.6 181.6 141.6 180.7 141.9C180.4 142 180.3 142.4 180.1 142.7C180.1 142.8 180.5 143 180.7 143.1C180.5 143.8 180.3 144.5 180.1 145.2C179.9 145.8 179.9 146.3 180.7 146.6C180.6 146.9 180.3 147.1 180.4 147.3C180.5 148 180.7 148.7 180.8 149.4C180.9 150.1 181.2 150.8 181.2 151.5C181.1 152.2 181.3 152.3 181.9 152.5C183.2 152.9 184.5 152.9 185.5 153.9C185.6 154 185.9 154.1 186.2 154.1C186.5 147.1 186.5 129.1 186.5 123.4Z" fill="#213D75"/>
<path d="M187.4 79.8C187.4 79.4 187.4 78.9999 187.4 78.5999C187.4 78.2999 187.5 78.1 187.8 78C188.3 77.8 188.5 77.5 188.4 77C188.4 76.8 188.4 76.5999 188.4 76.3999C188.4 75.9999 188.4 75.6 188.4 75.2C188.2 75.3 187.9 75.3 187.5 75.2C187.6 75.6 187.7 76 187.8 76.3C187.5 76.5 187.2 76.7 187 77C186.7 77.5 186.5 78 186.3 78.5C186.2 78.5 186.1 78.4999 186 78.5999C186.3 78.8999 186.7 79.2 187 79.5C187.2 79.4 187.3 79.6 187.4 79.8Z" fill="#213D75"/>
<path d="M239 79.2001C239 79.3001 238.9 79.4001 238.9 79.4001C238.9 79.5001 238.9 79.6001 238.8 79.8001C238.8 79.9001 238.8 80.0001 238.9 80.1001C238.9 80.3001 239.1 80.4001 239.2 80.4001C239.3 80.4001 239.5 80.4001 239.6 80.4001C239.7 80.4001 239.8 80.3001 239.8 80.2001C239.9 79.9001 239.9 79.5001 239.7 79.2001C239.6 78.9001 239.2 78.9001 239 79.2001Z" fill="#213D75"/>
<path d="M296 94.7V108.6H295.9C295.1 108.7 294.9 108.1 294.5 107.7C294.1 108.2 293.8 108.7 293.5 109.2C293.2 109.7 292.8 110 292.2 109.9C291.6 109.9 291 109.9 290.4 110.1C290.1 110.2 289.8 110.9 289.8 111.2C289.9 112.7 289.9 112.8 288.4 113C287.7 113.1 287 113.1 286.3 113.2C286.2 113.2 286.1 113.3 286.1 113.3C285.3 114.4 284.3 114 283.3 113.7C283.1 113.6 282.9 113.5 282.7 113.4C282.2 113.3 281.9 113.5 282.1 114C282.5 114.8 282.3 115.2 281.3 115.3C281.1 115.3 280.9 115.6 280.9 115.8C280.8 116.4 280.9 117 280.8 117.6C280.8 117.9 280.7 118.3 280.5 118.6C280.4 118.7 280 118.6 279.7 118.6C278.6 118.3 277.5 118 276.3 117.8C276 117.7 275.5 118 275.2 118.1C275 118.2 274.7 118.3 274.7 118.2C274.6 118.1 274.5 117.8 274.5 117.6C274.8 116.8 274.3 116.5 273.7 116.2C273.4 116 273 115.9 272.7 115.7C272.6 115.6 272.4 115.6 272.3 115.7C271.6 116.1 271 116.5 270.4 116.8C270.2 117.4 270 117.9 269.8 118.4C269.7 118.5 269.6 118.6 269.4 118.7C269.1 118.8 268.8 118.9 268.5 119C268.4 119.1 268.4 119.2 268.4 119.2C268 118.6 267.6 118 267.2 117.4C267.1 117.6 266.7 118 266.8 118.2C267 119.1 267.2 119.9 266.3 120.5C267.4 121.1 268.3 121.6 269.3 122C269.4 122.1 269.7 121.9 269.8 121.8C269.9 121.3 270.2 121.2 270.6 121.4C270.8 121.5 271.1 121.4 271.4 121.3C271.7 121.5 272 121.8 272.3 122.1C272.9 122.6 272.9 123.3 272.4 123.9C272.1 124.2 272.1 125.1 272.4 125.5C272.6 125.7 272.8 126 273 126.2C273.1 126.2 273.1 126.3 273.1 126.5C272.7 126.7 272.2 127.2 271.8 127.2C271 127.2 270.1 126.8 269.3 126.6C269.2 126.6 269.1 126.4 269.1 126.2C268.9 125.1 267.8 124.9 267.1 124.3C267 124.2 266.9 124.3 266.6 124.3C267.4 124.9 267 125.3 266.7 125.7C266.6 125.7 266.5 125.7 266.5 125.7C266.3 124.8 265.5 124.4 265 123.8C264.6 123.3 264.6 122.6 264.5 122C264.3 121.5 264.2 121 263.9 120.5C263.7 120.1 263.4 119.6 262.8 120C262.7 120.1 262.5 120 262.3 119.9C262 119.8 261.7 119.7 261.4 119.5C261.3 119.4 261.2 119.1 261 118.7C260 120.3 258.3 120.1 256.9 121C257 121.7 256.8 122.3 255.9 122.7C255.6 122.8 255.5 123.4 255.5 123.8C255.5 124 255.9 124.2 256.1 124.3C256.3 124.5 256.6 124.7 256.8 124.9C257 125.1 257.2 125.5 257.6 125.8C257.2 127.1 256.8 128.6 255.5 129.6C255.1 129.9 254.8 130.4 254.4 130.8C253.7 131.6 253.1 131.6 252.3 130.8C252.1 130.6 251.9 130.3 251.8 130.1C251.6 129.6 251.2 129.5 250.7 129.5C250.2 129.5 249.7 129.2 249.3 129C248.4 128.5 248.4 128.4 247.7 129.2C247.4 129.6 247.1 129.8 246.6 129.8C246.6 127.2 246.6 125 246.6 123.6C246.6 122.4 246.5 122.5 247.2 121.2C247.3 121 247.5 120.7 247.6 120.5C247.8 120.2 247.8 119.9 247.8 119.6C247.8 119.4 247.8 119.2 247.8 119.1V109.7C247.8 109.4 247.8 109.2 247.8 108.9C247.8 108.7 247.7 108.5 247.5 108.4C247.3 108.3 247 108.2 246.7 108.1C246.5 108 246.3 107.9 246.1 107.9C246 107.8 245.9 107.7 245.9 107.5C245.9 107.3 245.9 107 245.9 106.8C245.9 106 245.9 105.2 245.9 104.4C245.9 102 245.9 99.5 245.9 97.1C245.9 96.8 245.9 96.5 245.9 96.2C245.9 96 246 95.9 246.2 95.8C246.4 95.7 246.5 95.6 246.7 95.5C246.9 95.4 247 95.2 247 94.9C247 94.6 247 94.4 247 94.1V92.3C247 92.1 247 91.9 247 91.7C247 91.4 246.9 91.2 246.6 91.1C246.3 91 246 90.9 245.8 90.8C245.6 90.7 245.5 90.7 245.3 90.6C245.1 90.5 245 90.4 245 90.2C245 89.9 245 89.7 245 89.4C245 88.3 245 87.2 245 86.2V82.9C245 82.7 245 82.4 245 82.2C245 81.9 245.1 81.6 245.4 81.4C245.5 81.3 245.6 81.3 245.7 81.2C245.8 81.1 245.8 81 245.9 80.9V80.8V78.5C245.9 78.3 245.8 78.1 245.6 78C245.6 78 245.6 78 245.5 78C245 77.8 244.9 77.4 245 77C245 76.1 245 75.3 245 74.4V72.5C245 72 245 71.5 245.1 71.1C245.2 70.7 245.2 70.3 245.2 69.9C245.2 69.3 244.9 68.8 244.6 68.4C244.3 68.1 244 67.8 243.6 67.6C243.4 67.5 243.2 67.3 243.1 67C243 66.8 242.9 66.6 242.7 66.5C242.6 66.3 242.5 66.1 242.6 65.9C242.7 65.7 242.7 65.6 242.6 65.4C242.5 65.2 242.5 65 242.5 64.8C242.5 64.3 242.5 63.8 242.4 63.3C242.4 63.2 242.3 63.1 242.3 63.1C242.3 63.1 242.3 63.1 242.2 63.1H242.1C242.1 63.2 242.1 63.3 242 63.4C242 63.8 242 64.2 241.9 64.5C241.9 64.7 241.9 64.8 241.9 65C241.9 65.1 241.9 65.2 241.9 65.3C241.8 65.6 241.8 65.8 241.9 66.1C241.9 66.2 241.9 66.3 241.8 66.4C241.7 66.5 241.6 66.6 241.6 66.7C241.4 66.9 241.4 67.2 241.2 67.4C241 67.6 240.8 67.7 240.5 67.8C239.7 68.3 239.3 69 239.1 69.9C239 70.3 239.1 70.7 239.2 71.1C239.4 71.7 239.4 72.3 239.4 72.9C239.4 74.1 239.4 75.4 239.4 76.7C239.4 76.9 239.4 77.2 239.4 77.4C239.4 77.7 239.3 78 239 78.1H238.9C238.5 78.3 238.3 78.6 238.3 79C238.3 79.6 238.3 80.2 238.3 80.8C238.3 81.1 238.4 81.4 238.7 81.6C238.8 81.6 238.8 81.7 238.9 81.8C239.1 81.9 239.2 82.1 239.2 82.3C239.2 82.5 239.2 82.8 239.2 83V89.6C239.2 89.8 239.2 90.1 239.2 90.3C239.2 90.6 239 90.8 238.7 90.9C238.4 91 238.1 91.1 237.8 91.2C237.1 91.4 237 91.5 237 92.3C237 93.1 237 93.9 237 94.7C237 94.9 237 95 237 95.2C237 95.4 237.1 95.5 237.2 95.6C237.4 95.7 237.6 95.9 237.8 96C238 96.1 238.1 96.3 238.1 96.5C238.1 96.7 238.1 96.9 238.1 97.1C238.1 100.4 238.1 103.7 238.1 107C238.1 108 238 108 237.1 108.3C236.8 108.4 236.5 108.5 236.3 108.6C236.1 108.7 236 108.8 236 109C236 109.2 236 109.4 236 109.6C236 112.8 236 116 236 119.3C236 119.9 236.1 120.4 236.4 120.9C236.6 121.3 236.9 121.7 237.1 122.1C237.3 122.4 237.3 122.7 237.3 123V133.2C237.1 133.2 236.9 133.2 236.7 133.2C236.7 130.1 236.7 127.1 236.7 124C236.7 123.7 236.7 123.3 236.7 123C236.7 122.7 236.6 122.4 236.5 122.1C236.2 121.6 236 121.2 235.7 120.7C235.5 120.3 235.3 119.9 235.3 119.4C235.3 119.2 235.3 119.1 235.3 118.9V109.3C235.3 109.1 235.3 108.8 235.3 108.6C235.3 108.3 235.4 108 235.8 107.9C236 107.8 236.3 107.8 236.5 107.7C236.7 107.6 236.9 107.6 237.1 107.5C237.3 107.4 237.4 107.2 237.5 107C237.5 106.8 237.5 106.6 237.5 106.4V99.2C237.5 99 237.5 98.8 237.5 98.6C237.5 98.4 237.3 98.3 237.1 98.2C237 98.2 236.9 98.2 236.8 98.2C236.5 98.2 236.2 98.2 235.9 98.2H196.9C196.5 98.2 196.1 98.2 195.7 98.2C195.5 98.2 195.3 98.4 195.3 98.6C195.3 98.7 195.3 98.8 195.3 99V106.6C195.3 106.8 195.3 106.9 195.3 107.1C195.3 107.3 195.4 107.4 195.6 107.5C195.9 107.6 196.3 107.8 196.6 107.9C196.8 108 196.9 108 197.1 108.1C197.2 108.2 197.3 108.3 197.3 108.5C197.3 108.7 197.3 109 197.3 109.2V119.1C197.3 120.1 197.3 120.2 196.8 121.1C196.6 121.5 196.4 121.8 196.2 122.2C196 122.5 195.9 122.9 195.9 123.2V130.1C195.9 130.2 195.9 130.2 195.9 130.3C196.1 131.3 196 132.3 196 133.2V148.6C196 148.9 196 149.2 196 149.6C196 149.7 195.9 149.8 195.9 149.9C195.8 150 195.6 150.1 195.5 149.9C195.5 149.8 195.4 149.8 195.4 149.7C195.4 149.5 195.3 149.4 195.3 149.3C195.3 149 195.3 148.7 195.3 148.4C195.3 140.2 195.3 132.1 195.3 123.9C195.3 123.7 195.3 123.6 195.3 123.4C195.2 122.7 195.5 122.1 195.8 121.5C196 121.1 196.3 120.7 196.5 120.3C196.7 120.1 196.7 119.8 196.7 119.5C196.7 119.3 196.7 119.2 196.7 119V109.4C196.7 109.2 196.7 108.9 196.7 108.7C196.7 108.5 196.5 108.3 196.4 108.2C196.2 108.1 196 108 195.8 108C194.7 107.6 194.7 107.6 194.6 106.3V100.2C194.6 99.1 194.6 97.9 194.6 96.8C194.6 96.5 194.6 96.3 194.6 96C194.6 95.8 194.7 95.6 194.9 95.5C195.1 95.4 195.3 95.3 195.5 95.1C195.6 95 195.7 94.9 195.7 94.7C195.7 94.6 195.7 94.5 195.7 94.4V91.6C195.7 91.5 195.7 91.4 195.7 91.3C195.7 91 195.6 90.8 195.3 90.8C195.1 90.7 194.8 90.6 194.5 90.5C194.3 90.4 194.1 90.4 194 90.3C193.8 90.2 193.6 90 193.6 89.8C193.6 89.6 193.6 89.4 193.6 89.2C193.6 86.9 193.6 84.6 193.6 82.3C193.6 82.1 193.6 82 193.6 81.8C193.6 81.5 193.7 81.2 194 81C194.1 80.9 194.2 80.9 194.3 80.8C194.4 80.7 194.4 80.6 194.5 80.5C194.5 80.4 194.5 80.4 194.5 80.3V78.2C194.5 77.9 194.4 77.7 194.2 77.6C194.1 77.6 194.1 77.5 194 77.5C193.6 77.3 193.4 77 193.4 76.5C193.4 74.9 193.4 73.4 193.4 71.8C193.4 71.4 193.5 71.1 193.6 70.8C193.7 70.4 193.8 70.1 193.8 69.7C193.8 69.2 193.7 68.8 193.5 68.4C194.5 67.9 194.7 67 195.1 66.1C195.4 65.3 195.9 64.9 196.8 64.9C197.3 64.9 197.8 64.9 198.3 64.8C199 64.7 199.1 64.3 198.7 63.7C198.5 63.4 198.3 63.1 198.1 62.7C197.8 62.2 197.5 61.9 196.8 62.1C196.2 62.3 195.6 61.8 195.6 61.1C195.5 60.6 195.4 60.3 194.8 60.3C194.6 60.3 194.3 60.1 194.1 60C193.8 59.9 193.6 59.7 193.3 59.7C192.6 59.7 192.4 59.3 192.5 58.7C192.6 58.2 192.7 57.7 193 57.2C193.1 57 193.5 56.9 193.9 56.7C194 56.2 194.1 55.5 195.1 55.8C195.2 55.8 195.5 55.4 195.7 55.2C195.9 54.8 196 54.3 196.1 53.8C196.2 53.5 196.2 53.2 196.1 52.9C195.8 52.4 196 52.1 196.4 51.8C196.6 51.6 196.9 51.4 197.1 51.2C197.4 50.8 197.4 50.5 197.1 50.1C196.7 49.7 196.8 49.3 197.4 49.1C198.7 48.8 199.9 49 201.1 49.7C201.4 49.9 201.6 50.5 201.8 50.8C201.9 51 201.9 51.3 202 51.6C202.2 51.4 202.3 51.3 202.4 51.2C202.6 50.6 203 50.6 203.4 50.9C203.9 51.3 205.2 51.3 205.6 50.8C205.8 50.6 206 50 205.9 49.7C205.8 48.2 206 46.9 206.5 45.5C206.7 45.6 206.9 45.7 207.1 45.8C207.2 45.7 207.2 45.6 207.3 45.6C207.4 45.1 207.7 45 208.2 45C209 45.2 209.6 44.3 209.4 43.5C209.2 42.9 209.1 42.3 209 41.7C209 41.5 209.1 41.3 209.3 41.2C209.5 41.1 209.7 41 209.7 41C209.7 39.7 209.6 38.7 209.7 37.5C209.7 37.3 209.9 37.1 210.1 37C210.1 37 210.2 37 210.3 37C211.4 36.5 211.1 35.2 211.9 34.5C212.2 34.2 211.5 33.5 211.1 33.1C210.8 32.9 210.5 32.7 210.3 32.3C210.2 32.1 210.3 31.7 210.4 31.5C210.5 31.4 211 31.4 211.1 31.6C211.5 32 211.8 32.3 212.4 32.2C212.5 32.2 212.8 32.4 212.9 32.6C213.6 33.8 214.8 33.9 215.9 33.7C218.3 33.4 220.5 34 222.7 34.6C223.2 34.7 223.7 34.7 224.2 34.7C224.3 34.7 224.4 34.7 224.6 34.7C225.4 34.9 226.2 35.1 226.9 35.3C227.3 35.4 227.4 35.6 227.2 36C227.2 36.1 227.1 36.1 227.1 36.2C226.8 36.6 226.3 37.1 226.7 37.6C227 37.9 227.7 37.8 228.2 37.9C228.6 37.9 229.1 37.9 229.5 37.9C230.2 38 230.3 38.3 230 38.9C229.7 39.5 229.4 40 229.2 40.6C229.1 40.8 229.3 41.1 229.3 41.3C229.5 41.3 229.7 41.2 230 41.2C230.1 41.2 230.1 41 230.2 41C230.4 40.9 230.6 40.8 230.9 40.7C231 40.9 231.1 41.2 231.1 41.5C231.1 41.6 231.1 41.8 231.1 41.9C231.2 41.9 231.3 41.9 231.3 41.9C231.6 41.6 232 41.1 232.2 41.1C232.9 41.2 233.6 41.5 234.2 41.9C235.1 42.4 235.8 43.1 236.7 43.6C237 43.8 237.6 43.9 237.9 43.8C238.4 43.6 238.5 43 238.4 42.4C238.3 42.2 238.4 41.9 238.5 41.6C238.6 41 238.7 40.5 238.9 39.9C239 39.7 239 39.4 239.1 39.3C239.3 39.1 239.5 38.9 239.7 38.9C239.8 38.9 240.1 39.2 240.2 39.4C240.3 39.8 240.4 40.3 240.6 41C241.5 39.9 242.2 40.6 242.9 41.1C243.2 41.3 243.6 41.4 244 41.3C244.8 41.1 245.4 41.3 246 41.9C246.4 42.4 246.9 42.3 247.3 41.8C247.7 41.3 248 41.5 248.4 41.7C248.8 41.9 249.3 42.1 249.8 42.1C250.5 42.2 250.8 41.6 251.1 41.1C251.3 40.5 251.9 40.3 252.4 40.1C253 39.9 253.6 39.7 254.2 39.4C255 39 255.9 39 256.4 39.7C257.5 41.2 259.1 42.1 260.6 43C262.1 43.9 262.4 45.2 262.1 46.7C261.9 47.9 261.5 48.9 261 50C260.8 50.6 260.8 51.1 261.1 51.7C261.8 52.7 261.6 53.1 260.5 53.5C259.1 53.9 258.6 55 259.2 56.2C259.4 56.6 259.7 56.9 260.3 56.8C261 56.7 261.3 57 261.4 57.7C261.5 58.8 261.7 59.9 262 61C262.2 61.7 262 62.3 261.6 62.8C261 63.2 260.8 63.5 260.5 64C261.4 64.2 262.2 64.2 262.8 64.5C263.5 64.8 264.1 65.2 264.6 65.7C265.9 67 267.4 67.6 269.2 67.3C269.9 67.2 270.6 66.7 271.3 67.2C271.4 67.3 271.7 67 272 66.8C272.7 67.2 273.1 67.8 273.2 68.7C273.2 69.8 273.5 70 274.6 70C275 70 275.3 70.2 275.4 70.2C276.1 69.6 276.8 69 277.5 68.5C278.3 67.9 278.9 68.1 279.4 68.9C280 69.8 280.7 70.5 281.8 70.9C282.4 71.1 282.7 71.8 283.2 72.3C283.5 72.6 283.8 73 284.1 73.1C284.9 73.4 285.2 74 285.3 74.8C285.3 75 285.4 75.2 285.5 75.5C285.8 75.3 286 75.1 286.2 74.9C286.3 74.8 286.7 74.8 286.7 74.9C286.8 75.1 286.9 75.4 286.8 75.5C286 76.3 286.4 76.9 287 77.5C287.5 78.1 287.9 78.7 288.3 79.4C288.6 79.9 288.4 80.4 287.8 80.6C286.7 81 286.3 81.8 286.8 82.8C287 83.2 287.6 83.4 288 83.5C288.5 83.6 288.9 83.1 288.9 82.5C288.9 82.2 288.9 81.8 288.9 81.5C289 80.7 289.3 80.5 290 80.6C290.3 80.6 290.6 80.8 290.9 80.9C291.7 81.4 291.7 81.7 290.9 82.2C290.7 82.3 290.5 82.5 290.4 82.7C290.3 82.8 290.3 83.1 290.4 83.2C290.4 83.3 290.7 83.3 290.9 83.3C291.3 83.3 291.8 83.3 292.3 83.2C292.7 83.1 293 82.9 293.3 82.7C293.5 82.6 293.6 82.2 293.8 82.2C294.2 82.1 294.7 82.1 295 82.2C295.4 82.4 295.5 82.9 295.1 83.2C293.5 84.7 294.4 86.3 294.7 88C294.8 88.4 294.8 88.8 294.9 89.1C295 89.5 295 89.9 295.2 90.3C295.4 90.7 295.4 90.9 295.1 91.2C294.6 91.6 294.6 92.1 295 92.6C295.3 92.9 295.6 93.3 295.9 93.6C295.8 94.5 295.9 94.6 296 94.7Z" fill="#213D75"/>
<path d="M196.1 117.6C196.1 117.4 196.2 117.1 196.2 116.9C196.2 116.6 196.2 116.4 196.1 116.1C196 115.7 195.7 115.4 195.3 115.4C195.2 115.4 195.2 115.4 195.1 115.4C194.7 115.5 194.4 115.8 194.3 116.2C194.2 116.7 194.2 117.1 194.3 117.6C194.3 117.8 194.5 117.9 194.7 118C195.1 118.1 195.4 118.1 195.8 118C196 117.9 196.1 117.8 196.1 117.6Z" fill="#213D75"/>
<path d="M196.1 111.1C196.1 110.9 196.1 110.7 196.1 110.6C196.1 110.2 195.8 109.9 195.4 109.8C195.3 109.8 195.2 109.8 195.1 109.8C194.7 109.9 194.5 110.2 194.4 110.5C194.3 110.9 194.3 111.4 194.4 111.8C194.4 112 194.6 112.1 194.7 112.2C195.1 112.3 195.4 112.3 195.8 112.2C196 112.2 196.1 112.1 196.1 111.9C196.1 111.7 196.1 111.4 196.1 111.1Z" fill="#213D75"/>
<path d="M194.2 80.2C194.2 80.1 194.2 80 194.3 80C194.3 79.7 194.3 79.5 194.1 79.3C194 79.1 193.9 79 193.7 79C193.5 79 193.4 79.1 193.3 79.3C193.2 79.4 193.2 79.6 193.2 79.7C193.1 80.3 193.4 80.6 194.1 80.4C194.1 80.4 194.2 80.3 194.2 80.2Z" fill="#213D75"/>
<path d="M195.4 93.4C195.4 93.3 195.4 93.1 195.4 93C195.3 92.6 195 92.3 194.6 92.3C194.3 92.3 194 92.6 193.9 93C193.9 93.2 193.9 93.5 193.9 93.7C193.9 94.2 194.1 94.4 194.6 94.4C195.2 94.4 195.4 94.2 195.4 93.4Z" fill="#213D75"/>
<path d="M236.9 117.5C236.9 117.8 237.1 118 237.3 118C237.6 118 237.9 118 238.2 118C238.4 118 238.6 117.8 238.6 117.6C238.7 117.1 238.7 116.7 238.6 116.2C238.5 115.8 238.2 115.5 237.8 115.4C237.7 115.4 237.7 115.4 237.6 115.4C237.2 115.5 236.9 115.8 236.8 116.2C236.8 116.4 236.8 116.6 236.8 116.8C236.9 117.1 236.9 117.3 236.9 117.5Z" fill="#213D75"/>
<path d="M246.3 94.1C246.3 93.9 246.4 93.7 246.4 93.5C246.4 93.3 246.4 93.1 246.3 92.9C246.2 92.6 245.9 92.3 245.6 92.3C245.3 92.3 245 92.6 244.9 92.9C244.9 93 244.9 93.1 244.9 93.2C244.9 93.4 244.9 93.6 244.9 93.7C244.9 94.2 245.1 94.4 245.6 94.4C245.7 94.4 245.9 94.4 246 94.3C246.2 94.3 246.3 94.2 246.3 94.1Z" fill="#213D75"/>
<path d="M239.8 110.4C239.7 110.9 239.7 111.4 239.8 111.9C239.8 112.1 240 112.2 240.2 112.2C240.5 112.3 240.8 112.3 241.2 112.2C241.4 112.2 241.6 112 241.6 111.8C241.6 111.6 241.6 111.4 241.6 111.2C241.6 111 241.6 110.8 241.5 110.6C241.4 110.2 241.2 109.9 240.8 109.8C240.4 109.7 239.9 110 239.8 110.4Z" fill="#213D75"/>
<path d="M247.1 110.3C246.8 109.8 246.3 109.6 245.8 110C245.6 110.1 245.5 110.3 245.5 110.5C245.4 111 245.4 111.4 245.5 111.9C245.5 112.1 245.7 112.2 245.9 112.2C246.1 112.2 246.3 112.2 246.4 112.2C246.6 112.2 246.8 112.2 246.9 112.2C247.1 112.2 247.3 112 247.3 111.8C247.4 111.4 247.4 111 247.3 110.6C247.2 110.5 247.1 110.4 247.1 110.3Z" fill="#213D75"/>
<path d="M244.4 117.5C244.4 117.3 244.4 117.1 244.4 116.9C244.4 116.7 244.4 116.5 244.4 116.2C244.4 115.7 244 115.4 243.5 115.3C243.4 115.3 243.4 115.3 243.3 115.3C242.9 115.4 242.7 115.6 242.6 116C242.5 116.5 242.5 117 242.6 117.5C242.6 117.7 242.8 117.8 243 117.8C243.3 117.9 243.6 117.9 244 117.8C244.2 117.9 244.4 117.7 244.4 117.5Z" fill="#213D75"/>
<path d="M198.9 146.5C198.9 146.8 199.1 146.9 199.4 146.9C199.7 146.9 200 146.9 200.3 146.9C200.6 146.9 201 146.9 201.3 146.9C201.5 146.9 201.7 146.8 201.7 146.5C201.8 145.9 201.8 145.2 201.7 144.6V144.5C201.6 144.2 201.5 144 201.2 143.8C200.5 143.3 200.3 143.3 199.6 143.8C199.3 144 199.1 144.3 199 144.7C198.8 145.3 198.8 145.9 198.9 146.5Z" fill="#213D75"/>
<path d="M243.2 109.8C242.9 109.9 242.6 110.1 242.6 110.5C242.6 110.7 242.6 110.9 242.6 111.1C242.6 111.3 242.6 111.6 242.6 111.8C242.6 112 242.8 112.1 242.9 112.2C243.3 112.3 243.6 112.3 244 112.2C244.2 112.2 244.3 112 244.3 111.8C244.3 111.6 244.3 111.4 244.4 111.2C244.4 111 244.4 110.8 244.4 110.6C244.4 110.4 244.3 110.2 244.1 110C243.8 109.8 243.5 109.7 243.2 109.8Z" fill="#213D75"/>
<path d="M240.8 118C240.9 118 241 118 241.2 118C241.4 118 241.5 117.8 241.5 117.6C241.6 117.1 241.6 116.7 241.5 116.2C241.4 115.8 241.1 115.5 240.7 115.4C240.6 115.4 240.6 115.4 240.5 115.4C240.1 115.5 239.8 115.8 239.7 116.2C239.7 116.4 239.7 116.7 239.7 116.7C239.7 116.9 239.7 116.9 239.7 117C239.7 117.9 239.9 118 240.8 118Z" fill="#213D75"/>
<path d="M231.5 138.1C231.5 138.7 231.5 139.2 231.5 139.8C231.5 139.9 231.5 139.9 231.5 140C231.5 140.2 231.7 140.3 231.9 140.3C232 140.3 232.2 140.3 232.3 140.3C232.3 139.9 232.2 139.6 232 139.2C231.7 138.6 231.6 138 231.7 137.5C231.6 137.7 231.5 137.9 231.5 138.1Z" fill="#213D75"/>
<path d="M246.4 115.4C246.3 115.4 246.2 115.4 246.1 115.4C245.7 115.5 245.5 115.7 245.4 116.1C245.3 116.6 245.2 117.1 245.3 117.6C245.3 117.8 245.5 117.9 245.7 118C246.1 118.1 246.5 118.1 246.8 118C247 118 247.1 117.8 247.1 117.6C247.1 117.4 247.1 117.2 247.2 117C247.2 116.8 247.2 116.5 247.1 116.2C247.1 115.7 246.8 115.5 246.4 115.4Z" fill="#213D75"/>
<path d="M244.6 80.4001C244.7 80.4001 244.8 80.4001 244.9 80.4001C245.1 80.4001 245.2 80.3001 245.2 80.1001C245.2 80.0001 245.2 79.9001 245.3 79.8001C245.3 79.7001 245.3 79.6001 245.2 79.4001C245.2 79.3001 245.1 79.2001 245.1 79.2001C244.9 78.9001 244.5 78.9001 244.3 79.2001C244.3 79.2001 244.3 79.2001 244.3 79.3001C244.2 79.6001 244.2 79.9001 244.3 80.2001C244.3 80.3001 244.4 80.4001 244.6 80.4001Z" fill="#213D75"/>
<path d="M240.2 92.8001C240.1 93.2001 240.1 93.6001 240.2 93.9001C240.2 94.1001 240.4 94.2001 240.5 94.3001C240.7 94.4001 241 94.4001 241.2 94.3001C241.4 94.3001 241.5 94.1001 241.5 93.9001C241.5 93.7001 241.5 93.5001 241.6 93.3001C241.6 93.1001 241.6 92.9001 241.5 92.7001C241.4 92.4001 241.1 92.2001 240.9 92.1001C240.6 92.2001 240.2 92.5001 240.2 92.8001Z" fill="#213D75"/>
<path d="M241.6 79.1999C241.5 78.9999 241.4 78.8999 241.2 78.8999C241 78.8999 240.9 78.9999 240.8 79.1999C240.8 79.1999 240.7 79.2999 240.7 79.3999C240.6 79.5999 240.6 79.8999 240.7 80.0999C240.7 80.1999 240.8 80.2999 240.9 80.3999C241.2 80.5999 241.7 80.4999 241.7 79.9999V79.8999C241.7 79.5999 241.7 79.3999 241.6 79.1999Z" fill="#213D75"/>
<path d="M241.3 73.3001C241.2 73.2001 241 73.2001 241 73.3001C240.9 73.4001 240.8 73.5001 240.8 73.6001C240.6 73.9001 240.5 74.3001 240.5 74.6001C240.5 75.2001 240.5 75.8001 240.5 76.4001C240.5 76.5001 240.5 76.6001 240.6 76.7001C240.6 76.9001 240.8 77.0001 240.9 77.0001C241 77.0001 241.2 77.0001 241.3 77.0001C241.5 77.0001 241.7 76.8001 241.7 76.6001C241.7 76.2001 241.7 75.8001 241.8 75.4001C241.8 74.9001 241.8 74.5001 241.8 74.1001C241.7 73.8001 241.6 73.5001 241.3 73.3001Z" fill="#213D75"/>
<path d="M243.3 92.3C243 92.3 242.6 92.6 242.5 92.9C242.5 93 242.5 93.1 242.5 93.2C242.5 93.3 242.5 93.5 242.5 93.6C242.5 94.2 242.7 94.4 243.4 94.4C243.5 94.4 243.6 94.4 243.7 94.4C243.9 94.4 244 94.2 244.1 94.1C244.2 93.7 244.2 93.3 244.1 93C243.9 92.6 243.6 92.3 243.3 92.3Z" fill="#213D75"/>
<path d="M242.7 80.4001C242.8 80.5001 243 80.5001 243.1 80.4001C243.3 80.4001 243.4 80.3001 243.4 80.1001C243.4 80.0001 243.4 79.9001 243.5 79.8001C243.5 79.7001 243.5 79.6001 243.4 79.4001C243.4 79.3001 243.3 79.2001 243.3 79.2001C243.1 78.9001 242.7 78.9001 242.5 79.2001C242.5 79.2001 242.5 79.2001 242.5 79.3001C242.4 79.6001 242.4 79.9001 242.5 80.2001C242.5 80.2001 242.6 80.3001 242.7 80.4001Z" fill="#213D75"/>
<path d="M243.5 74.2001C243.5 73.9001 243.3 73.6001 243.1 73.3001C243 73.2001 242.8 73.2001 242.7 73.3001C242.5 73.5001 242.4 73.8001 242.3 74.1001C242.2 74.9001 242.2 75.8001 242.3 76.6001C242.3 76.8001 242.5 76.9001 242.7 76.9001C242.8 76.9001 243 76.9001 243.1 76.9001C243.3 76.9001 243.4 76.7001 243.5 76.6001C243.5 76.2001 243.5 75.8001 243.6 75.4001C243.5 75.0001 243.5 74.6001 243.5 74.2001Z" fill="#213D75"/>
<g opacity="0.75">
<path d="M265 181.1C226.5 181.7 188.4 183.9 150 185.4C137 185.9 166.4 191.1 168.3 191.9C175.8 194 183.9 191.6 191.8 191.7C209.4 189.9 226.8 188.9 244.6 187.4C251.1 187.1 257.8 186.5 264.5 185.9C265.4 186.2 264.9 184.6 264.9 184C265.2 183 264.9 182 265 181.1Z" fill="url(#paint1_radial_7504_110779)"/>
</g>
<g opacity="0.49">
<path d="M265 181C264.9 180.9 264.8 180.9 264.6 181C264.4 181 264.4 181.1 264.3 181.1C264.1 181.1 264.1 181 263.9 181C263.7 181 263.7 181 263.5 181C263.3 181 263.3 181 263.1 181C262.9 181 262.9 181 262.7 181C262.5 181 262.5 181 262.3 181C262.1 181 262.1 181 261.9 181C261.7 181 261.7 181 261.5 181C261.3 181 261.3 181 261.1 181.1C260.9 181.2 260.9 181.1 260.7 181.1C260.5 181.1 260.5 181 260.3 181C260.1 181 260.1 181.1 259.9 181.1C259.7 181.1 259.7 181.1 259.5 181.1C259.3 181.1 259.3 181 259.1 181.1C258.9 181.1 258.9 181.2 258.7 181.2C258.5 181.2 258.5 181.2 258.3 181.2C258.1 181.2 258.1 181.2 257.9 181.2C257.7 181.2 257.7 181.3 257.5 181.3C257.3 181.3 257.3 181.3 257.1 181.3C256.9 181.3 256.9 181.4 256.7 181.4C256.5 181.4 256.5 181.3 256.3 181.3C256.1 181.3 256.1 181.3 255.9 181.3C255.7 181.3 255.7 181.4 255.5 181.4C255.3 181.4 255.3 181.4 255.1 181.4C254.9 181.4 254.9 181.4 254.7 181.4C254.5 181.4 254.5 181.3 254.3 181.3C254.1 181.3 254.1 181.4 253.9 181.4C253.7 181.4 253.7 181.3 253.5 181.4C253.3 181.4 253.3 181.3 253.1 181.3C252.9 181.3 252.9 181.4 252.7 181.4C252.5 181.4 252.5 181.4 252.3 181.4C252.1 181.4 252.1 181.4 251.9 181.4C251.7 181.4 251.7 181.4 251.5 181.4C251.3 181.4 251.3 181.4 251.1 181.4C250.9 181.4 250.9 181.4 250.7 181.5C250.5 181.5 250.5 181.5 250.3 181.5C250.1 181.5 250.1 181.5 249.9 181.5C249.7 181.5 249.7 181.5 249.5 181.5C249.3 181.5 249.3 181.4 249.1 181.4C248.9 181.4 248.9 181.4 248.7 181.4C248.5 181.4 248.5 181.5 248.3 181.5C248.1 181.5 248.1 181.5 247.9 181.5C247.7 181.5 247.7 181.4 247.5 181.4C247.3 181.4 247.3 181.4 247.1 181.4C246.9 181.4 246.9 181.5 246.7 181.5C246.5 181.5 246.5 181.5 246.3 181.5C246.1 181.5 246.1 181.5 245.9 181.5C245.7 181.5 245.7 181.5 245.5 181.5C245.3 181.5 245.3 181.5 245.1 181.5C244.9 181.5 244.9 181.5 244.7 181.6C244.5 181.6 244.5 181.5 244.3 181.5C244.1 181.5 244.1 181.5 243.9 181.5C243.7 181.5 243.7 181.5 243.5 181.5C243.3 181.5 243.3 181.5 243.1 181.5C242.9 181.5 242.9 181.4 242.7 181.4C242.5 181.4 242.5 181.4 242.3 181.4C242.1 181.4 242.1 181.5 241.9 181.5C241.7 181.5 241.7 181.5 241.5 181.5C241.3 181.5 241.3 181.5 241.1 181.5C240.9 181.5 240.9 181.4 240.7 181.4C240.5 181.4 240.5 181.5 240.3 181.5C240.1 181.5 240.1 181.5 239.9 181.5C239.7 181.5 239.7 181.5 239.5 181.5C239.3 181.5 239.3 181.5 239.1 181.5C238.9 181.5 238.9 181.5 238.7 181.5C238.5 181.5 238.5 181.5 238.3 181.5C238.1 181.5 238.1 181.6 237.9 181.6C237.7 181.6 237.7 181.6 237.5 181.6C237.3 181.6 237.3 181.5 237.1 181.5C236.9 181.5 236.9 181.6 236.7 181.6C236.5 181.6 236.5 181.5 236.3 181.5C236.1 181.5 236.1 181.5 235.9 181.5C235.7 181.5 235.7 181.5 235.5 181.5C235.3 181.5 235.3 181.6 235.1 181.6C234.9 181.6 234.9 181.6 234.7 181.6C234.5 181.6 234.5 181.6 234.3 181.6C234.1 181.6 234.1 181.7 234 181.7C233.8 181.7 233.8 181.7 233.6 181.7C233.4 181.7 233.4 181.6 233.2 181.6C233 181.6 233 181.7 232.8 181.7C232.6 181.7 232.6 181.8 232.5 181.8C232.3 181.8 232.3 181.7 232.1 181.7C231.9 181.7 231.9 181.8 231.7 181.8C231.5 181.8 231.5 181.8 231.3 181.8C231.1 181.8 231.1 181.7 230.9 181.7C230.7 181.7 230.7 181.7 230.5 181.7C230.3 181.7 230.3 181.8 230.1 181.8C229.9 181.8 229.9 181.8 229.7 181.8C229.5 181.8 229.5 181.7 229.3 181.7C229.1 181.7 229.1 181.8 228.9 181.8C228.7 181.8 228.7 181.8 228.5 181.8C228.3 181.8 228.3 181.8 228.1 181.8C227.9 181.8 227.9 181.8 227.7 181.8C227.5 181.8 227.5 181.9 227.4 181.9C227.2 181.9 227.2 181.9 227 181.9C226.8 181.9 226.8 181.9 226.6 181.9C226.4 181.9 226.4 182 226.3 182C226.1 182 226.1 181.9 225.9 181.9C225.7 181.9 225.7 182 225.6 182C225.4 182 225.4 182 225.2 182C225 182 225 182 224.8 182C224.6 182 224.6 182 224.4 182C224.2 182 224.2 182 224 182C223.8 182 223.8 182.1 223.7 182.1C223.6 182.1 223.5 182.1 223.3 182.1C223.1 182.1 223.1 182.1 222.9 182.1C222.7 182.1 222.7 182.1 222.5 182.1C222.3 182.1 222.3 182.1 222.1 182.1C221.9 182.1 221.9 182 221.7 182C221.5 182 221.5 182.1 221.3 182.1C221.1 182.1 221.1 182.1 220.9 182.1C220.7 182.1 220.7 182.1 220.5 182.1C220.3 182.1 220.3 182.1 220.1 182.1C219.9 182.1 219.9 182.1 219.7 182.1C219.5 182.1 219.5 182.1 219.3 182.1C219.1 182.1 219.1 182.2 219 182.2C218.8 182.2 218.8 182.1 218.6 182.1C218.4 182.1 218.4 182.2 218.3 182.2C218.1 182.2 218.1 182.1 217.9 182.1C217.7 182.1 217.7 182.1 217.5 182.1C217.3 182.1 217.3 182.1 217.1 182.1C216.9 182.1 216.9 182.2 216.7 182.2C216.5 182.2 216.5 182.3 216.4 182.3C216.2 182.3 216.2 182.3 216 182.3C215.8 182.3 215.8 182.3 215.6 182.3C215.4 182.3 215.4 182.3 215.2 182.3C215 182.3 215 182.2 214.8 182.2C214.6 182.2 214.6 182.2 214.4 182.2C214.2 182.2 214.2 182.3 214 182.3C213.8 182.3 213.8 182.3 213.6 182.3C213.4 182.3 213.4 182.2 213.2 182.2C213 182.2 213 182.3 212.9 182.3C212.8 182.3 212.7 182.3 212.5 182.3C212.3 182.3 212.3 182.2 212.1 182.2C211.9 182.2 211.9 182.3 211.8 182.3C211.6 182.3 211.6 182.3 211.4 182.3C211.2 182.3 211.2 182.3 211 182.3C210.8 182.3 210.8 182.3 210.6 182.3C210.4 182.3 210.4 182.2 210.2 182.2C210 182.2 210 182.3 209.9 182.3C209.7 182.3 209.7 182.3 209.5 182.4C209.3 182.4 209.3 182.3 209.1 182.4C208.9 182.4 208.9 182.4 208.7 182.4C208.5 182.4 208.5 182.5 208.3 182.5C208.1 182.5 208.1 182.5 207.9 182.5C207.7 182.5 207.7 182.6 207.6 182.6C207.4 182.6 207.4 182.6 207.2 182.6C207 182.6 207 182.6 206.8 182.6C206.6 182.6 206.6 182.5 206.4 182.5C206.2 182.5 206.2 182.6 206.1 182.6C205.9 182.6 205.9 182.6 205.7 182.6C205.5 182.6 205.5 182.7 205.4 182.7C205.2 182.7 205.2 182.6 205 182.6C204.8 182.6 204.8 182.7 204.6 182.7C204.4 182.7 204.4 182.7 204.2 182.7C204 182.7 204 182.7 203.8 182.7C203.6 182.7 203.6 182.6 203.4 182.6C203.2 182.6 203.2 182.7 203 182.7C202.8 182.7 202.8 182.7 202.6 182.7C202.4 182.7 202.4 182.7 202.2 182.7C202 182.7 202 182.8 201.9 182.8C201.7 182.8 201.7 182.7 201.5 182.7C201.3 182.7 201.3 182.8 201.2 182.8C201 182.8 201 182.7 200.8 182.7C200.6 182.7 200.6 182.7 200.4 182.7C200.2 182.7 200.2 182.7 200 182.7C199.8 182.7 199.8 182.8 199.7 182.8C199.5 182.8 199.5 182.8 199.3 182.8C199.1 182.8 199.1 182.9 198.9 182.9C198.7 182.9 198.7 182.8 198.5 182.8C198.3 182.8 198.3 182.8 198.1 182.8C197.9 182.8 197.9 182.9 197.8 182.9C197.6 182.9 197.6 182.9 197.4 182.9C197.2 182.9 197.2 183 197 183C196.8 183 196.8 182.9 196.6 182.9C196.4 182.9 196.4 183 196.3 183C196.1 183 196.1 182.9 195.9 183C195.7 183 195.7 183 195.5 183C195.3 183 195.3 183.1 195.2 183.1C195 183.1 195 183 194.8 183C194.6 183 194.6 183 194.4 183C194.2 183 194.2 183 194 183C193.8 183 193.8 183 193.6 183C193.4 183 193.4 183 193.2 183C193 183 193 183.1 192.8 183.1C192.6 183.1 192.6 183.1 192.4 183.1C192.2 183.1 192.2 183 192 183C191.8 183 191.8 183 191.6 183C191.4 183 191.4 183 191.2 183C191 183 191 183.1 190.9 183.1C190.7 183.1 190.7 183.1 190.5 183.1C190.3 183.1 190.3 183 190.1 183.1C189.9 183.1 189.9 183.1 189.7 183.1C189.5 183.1 189.5 183.1 189.3 183.1C189.1 183.1 189.1 183.1 188.9 183.1C188.7 183.1 188.7 183.2 188.5 183.2C188.3 183.2 188.3 183.2 188.1 183.2C187.9 183.2 187.9 183.2 187.7 183.2C187.5 183.2 187.5 183.3 187.3 183.3C187.1 183.3 187.1 183.3 186.9 183.3C186.7 183.3 186.7 183.3 186.5 183.3C186.3 183.3 186.3 183.4 186.2 183.4C186 183.4 186 183.4 185.8 183.4C185.6 183.4 185.6 183.3 185.4 183.3C185.2 183.3 185.2 183.4 185.1 183.4C184.9 183.4 184.9 183.3 184.7 183.3C184.5 183.3 184.5 183.4 184.4 183.4C184.2 183.4 184.2 183.3 184 183.3C183.8 183.3 183.8 183.4 183.6 183.4C183.4 183.4 183.4 183.4 183.2 183.4C183 183.4 183 183.4 182.8 183.4C182.6 183.4 182.6 183.5 182.4 183.5C182.2 183.5 182.2 183.5 182 183.5C181.8 183.5 181.8 183.5 181.6 183.5C181.4 183.5 181.4 183.5 181.2 183.5C181 183.5 181 183.6 180.8 183.6C180.6 183.6 180.6 183.7 180.4 183.7C180.2 183.7 180.2 183.7 180 183.7C179.8 183.7 179.8 183.6 179.6 183.6C179.4 183.6 179.4 183.7 179.3 183.7C179.1 183.7 179.1 183.7 178.9 183.7C178.7 183.7 178.7 183.7 178.5 183.7C178.3 183.7 178.3 183.7 178.1 183.7C177.9 183.7 177.9 183.7 177.7 183.7C177.5 183.7 177.5 183.8 177.4 183.8C177.2 183.8 177.2 183.7 177 183.7C176.8 183.7 176.8 183.8 176.6 183.8C176.4 183.8 176.4 183.8 176.2 183.8C176 183.8 176 183.8 175.8 183.8C175.6 183.8 175.6 183.8 175.4 183.8C175.2 183.8 175.2 183.8 175 183.8C174.8 183.8 174.8 183.8 174.6 183.8C174.4 183.8 174.4 183.8 174.2 183.8C174 183.8 174 183.8 173.8 183.8C173.6 183.8 173.6 183.8 173.4 183.9C173.2 184 173.2 183.9 173 183.9C172.8 183.9 172.8 183.8 172.6 183.8C172.4 183.8 172.4 183.9 172.2 183.9C172 183.9 172 183.9 171.8 183.9C171.6 183.9 171.6 184 171.5 184C171.3 184 171.3 183.9 171.1 183.9C170.9 183.9 170.9 184 170.8 184C170.6 184 170.6 183.9 170.4 183.9C170.2 183.9 170.2 183.9 170 183.9C169.8 183.9 169.8 183.9 169.6 183.9C169.4 183.9 169.4 183.9 169.2 183.9C169 183.9 169 183.9 168.8 183.9C168.6 183.9 168.6 184 168.4 184C168.2 184 168.2 183.9 168 183.9C167.8 183.9 167.8 183.9 167.6 183.9C167.4 183.9 167.4 184 167.2 184C167 184 167 184 166.8 184C166.6 184 166.6 184 166.4 184C166.2 184 166.2 184.1 166.1 184.1C165.9 184.1 165.9 184.1 165.7 184.1C165.5 184.1 165.5 184.1 165.3 184.1C165.1 184.1 165.1 184.1 164.9 184.1C164.7 184.1 164.7 184.1 164.5 184.1C164.3 184.1 164.3 184.2 164.1 184.2C163.9 184.2 163.9 184.2 163.7 184.2C163.5 184.2 163.5 184.2 163.3 184.2C163.1 184.2 163.1 184.1 162.9 184.1C162.7 184.1 162.7 184.1 162.5 184.1C162.3 184.1 162.3 184.2 162.1 184.2C161.9 184.2 161.9 184.1 161.7 184.1C161.5 184.1 161.5 184.1 161.3 184.1C161.1 184.1 161.1 184.2 160.9 184.2C160.7 184.2 160.7 184.2 160.5 184.2C160.3 184.2 160.3 184.1 160.1 184.1C159.9 184.1 159.9 184.2 159.7 184.2C159.5 184.2 159.5 184.2 159.3 184.2C159.1 184.2 159.1 184.2 158.9 184.2C158.7 184.2 158.7 184.2 158.5 184.3C158.3 184.3 158.3 184.3 158.1 184.3C157.9 184.3 157.9 184.2 157.7 184.3C157.6 184.3 157.5 184.4 157.3 184.4C157.2 184.4 157.1 184.4 156.9 184.4C156.8 184.4 156.6 184.4 156.5 184.4C156.4 184.4 156.3 184.4 156.1 184.5C156 184.5 155.8 184.6 155.8 184.6C155.7 184.7 155.6 184.8 155.6 184.9C155.6 185 155.7 185 155.8 185.1C155.9 185.2 155.9 185.3 156 185.4C156.1 185.4 156.2 185.5 156.3 185.5C156.4 185.5 156.5 185.6 156.6 185.6C156.7 185.6 156.8 185.6 157 185.7C157.1 185.7 157.2 185.8 157.3 185.9C157.5 185.9 157.5 186 157.6 186C157.8 186 157.8 186 158 186C158.2 186 158.2 186.1 158.3 186.1C158.5 186.1 158.5 186.1 158.7 186.2C158.9 186.2 158.9 186.2 159.1 186.2C159.3 186.2 159.3 186.3 159.4 186.3C159.6 186.3 159.6 186.3 159.8 186.3C160 186.3 160 186.4 160.1 186.5C160.3 186.5 160.3 186.5 160.5 186.6C160.7 186.6 160.7 186.6 160.9 186.7C161.1 186.7 161.1 186.7 161.3 186.7C161.5 186.7 161.4 186.9 161.6 186.9C161.8 186.9 161.8 186.9 162 187C162.2 187 162.2 187 162.4 187C162.6 187 162.6 187.1 162.7 187.1C162.9 187.1 162.9 187.2 163 187.2C163.2 187.2 163.2 187.2 163.4 187.3C163.6 187.4 163.6 187.3 163.8 187.3C164 187.3 164 187.3 164.2 187.4C164.4 187.4 164.3 187.5 164.5 187.6C164.7 187.6 164.7 187.6 164.9 187.7C165.1 187.7 165.1 187.7 165.3 187.7C165.5 187.7 165.4 187.8 165.6 187.9C165.8 187.9 165.8 187.9 166 188C166.2 188 166.2 188 166.4 188.1C166.6 188.1 166.6 188.2 166.7 188.2C166.9 188.2 166.9 188.2 167.1 188.2C167.3 188.2 167.3 188.3 167.4 188.3C167.6 188.3 167.6 188.3 167.8 188.3C168 188.3 168 188.3 168.2 188.4C168.4 188.4 168.4 188.5 168.5 188.5C168.7 188.5 168.7 188.6 168.8 188.6C169 188.6 169 188.5 169.2 188.6C169.4 188.6 169.3 188.7 169.5 188.8C169.7 188.8 169.7 188.8 169.9 188.9C170.1 188.9 170.1 189 170.2 189C170.4 189 170.4 189 170.6 189C170.8 189 170.8 189.1 170.9 189.2C171.1 189.2 171.1 189.2 171.3 189.3C171.5 189.3 171.5 189.3 171.7 189.3C171.9 189.3 171.9 189.4 172 189.4C172.2 189.4 172.2 189.3 172.4 189.4C172.6 189.4 172.6 189.5 172.7 189.5C172.9 189.5 172.9 189.6 173 189.6C173.2 189.6 173.2 189.7 173.3 189.7C173.5 189.7 173.5 189.7 173.7 189.7C173.9 189.7 173.9 189.8 174 189.8C174.2 189.8 174.2 189.8 174.4 189.9C174.6 189.9 174.6 189.9 174.8 190C175 190 175 190.1 175.1 190.1C175.3 190.1 175.3 190.1 175.5 190.2C175.7 190.2 175.7 190.2 175.9 190.3C176.1 190.3 176.1 190.4 176.2 190.4C176.3 190.4 176.4 190.5 176.5 190.5C176.6 190.5 176.8 190.4 176.9 190.5C177 190.5 177.1 190.5 177.2 190.6C177.3 190.6 177.4 190.7 177.5 190.8C177.6 190.8 177.7 190.8 177.9 190.8C178 190.8 178.1 190.7 178.2 190.7C178.3 190.7 178.4 190.7 178.5 190.7C178.6 190.7 178.7 190.8 178.9 190.8C179 190.8 179.1 190.7 179.2 190.7C179.3 190.7 179.4 190.7 179.6 190.7C179.7 190.7 179.8 190.7 180 190.7C180.1 190.7 180.2 190.7 180.4 190.7C180.5 190.7 180.6 190.6 180.8 190.6C180.9 190.6 181.1 190.7 181.2 190.7C181.3 190.7 181.4 190.6 181.6 190.6C181.7 190.6 181.9 190.7 182 190.7C182.1 190.7 182.2 190.6 182.4 190.6C182.5 190.6 182.6 190.6 182.8 190.6C182.9 190.6 183 190.6 183.2 190.6C183.3 190.6 183.4 190.6 183.6 190.6C183.7 190.6 183.8 190.5 184 190.5C184.1 190.5 184.3 190.6 184.4 190.5C184.5 190.5 184.6 190.5 184.8 190.5C184.9 190.5 185 190.5 185.2 190.5C185.3 190.5 185.4 190.5 185.6 190.5C185.7 190.5 185.8 190.5 186 190.5C186.1 190.5 186.2 190.5 186.4 190.5C186.5 190.5 186.6 190.5 186.8 190.5C186.9 190.5 187 190.5 187.2 190.5C187.3 190.5 187.5 190.6 187.6 190.6C187.7 190.6 187.8 190.5 187.9 190.5C188 190.5 188.2 190.6 188.3 190.5C188.4 190.5 188.5 190.4 188.7 190.4C188.8 190.4 188.9 190.4 189.1 190.4C189.2 190.4 189.3 190.4 189.5 190.4C189.6 190.4 189.7 190.3 189.8 190.3C189.9 190.3 190.1 190.4 190.2 190.3C190.3 190.3 190.4 190.3 190.6 190.3C190.7 190.3 190.8 190.2 190.9 190.2C191 190.2 191.2 190.2 191.3 190.2C191.4 190.2 191.5 190.2 191.7 190.2C191.8 190.2 191.9 190.2 192.1 190.2C192.2 190.2 192.3 190.2 192.5 190.2C192.6 190.2 192.7 190.1 192.8 190.1C192.9 190.1 193 190.1 193.2 190.1C193.3 190.1 193.5 190.1 193.6 190.1C193.7 190.1 193.8 190.1 194 190.1C194.1 190.1 194.2 190.1 194.4 190.1C194.5 190.1 194.6 190 194.8 190C195 190 195.1 190.1 195.2 190.1C195.3 190.1 195.4 190.1 195.6 190.1C195.8 190.1 195.8 190.1 196 190.1C196.1 190.1 196.2 190 196.4 190C196.5 190 196.7 190 196.8 190C196.9 190 197 189.9 197.2 189.9C197.3 189.9 197.5 190 197.6 190C197.7 190 197.8 189.9 198 189.9C198.1 189.9 198.2 189.9 198.4 189.9C198.5 189.9 198.6 189.9 198.8 189.9C198.9 189.9 199 189.9 199.2 189.9C199.3 189.9 199.4 189.9 199.6 189.9C199.7 189.9 199.8 189.8 199.9 189.8C200 189.8 200.1 189.8 200.3 189.8C200.4 189.8 200.5 189.8 200.7 189.8C200.8 189.8 200.9 189.8 201.1 189.8C201.2 189.8 201.4 189.8 201.5 189.8C201.6 189.8 201.7 189.7 201.8 189.7C201.9 189.7 202.1 189.8 202.2 189.7C202.3 189.7 202.4 189.7 202.6 189.7C202.7 189.7 202.8 189.7 203 189.7C203.1 189.7 203.2 189.6 203.3 189.6C203.4 189.6 203.5 189.6 203.7 189.6C203.8 189.6 203.9 189.5 204.1 189.5C204.2 189.5 204.4 189.6 204.5 189.6C204.6 189.6 204.7 189.5 204.8 189.5C204.9 189.5 205.1 189.6 205.2 189.5C205.3 189.5 205.4 189.4 205.5 189.4C205.6 189.4 205.7 189.3 205.8 189.3C205.9 189.3 206 189.2 206.1 189.2C206.2 189.2 206.3 189.2 206.5 189.1C206.6 189.1 206.8 189.2 206.9 189.1C207 189.1 207.1 189 207.2 188.9C207.3 188.9 207.5 189 207.6 188.9C207.7 188.9 207.8 188.8 207.9 188.8C208 188.8 208.1 188.8 208.3 188.7C208.4 188.7 208.6 188.7 208.7 188.7C208.8 188.7 208.9 188.7 209.1 188.7C209.2 188.7 209.3 188.6 209.4 188.6C209.5 188.6 209.7 188.6 209.8 188.6C209.9 188.6 210 188.6 210.2 188.6C210.3 188.6 210.4 188.5 210.5 188.5C210.6 188.5 210.8 188.5 210.9 188.5C211 188.5 211.1 188.4 211.2 188.4C211.3 188.4 211.5 188.5 211.6 188.5C211.7 188.5 211.8 188.4 212 188.4C212.1 188.4 212.2 188.3 212.3 188.3C212.4 188.3 212.6 188.3 212.7 188.3C212.8 188.3 212.9 188.2 213 188.2C213.1 188.2 213.3 188.2 213.4 188.2C213.5 188.2 213.6 188.2 213.8 188.2C213.9 188.2 214 188.2 214.2 188.1C214.3 188.1 214.5 188.2 214.6 188.1C214.7 188.1 214.8 188 215 188C215.1 188 215.2 188 215.4 188C215.6 188 215.6 188 215.8 188C215.9 188 216 187.9 216.2 187.9C216.3 187.9 216.4 187.9 216.6 187.9C216.7 187.9 216.8 187.9 217 187.9C217.1 187.9 217.2 187.9 217.4 187.9C217.5 187.9 217.6 187.9 217.8 187.8C217.9 187.8 218 187.8 218.2 187.8C218.3 187.8 218.4 187.8 218.6 187.8C218.7 187.8 218.8 187.7 219 187.7C219.1 187.7 219.2 187.7 219.4 187.7C219.5 187.7 219.7 187.8 219.8 187.8C219.9 187.8 220 187.7 220.1 187.7C220.2 187.7 220.4 187.8 220.5 187.8C220.6 187.8 220.7 187.7 220.9 187.7C221 187.7 221.2 187.8 221.3 187.8C221.4 187.8 221.5 187.8 221.7 187.8C221.8 187.8 221.9 187.8 222.1 187.8C222.2 187.8 222.3 187.8 222.5 187.7C222.6 187.7 222.7 187.7 222.9 187.7C223.1 187.7 223.1 187.6 223.3 187.6C223.4 187.6 223.5 187.6 223.7 187.6C223.8 187.6 223.9 187.6 224.1 187.6C224.2 187.6 224.3 187.5 224.4 187.5C224.5 187.5 224.6 187.5 224.8 187.5C225 187.5 225 187.5 225.2 187.5C225.3 187.5 225.4 187.5 225.6 187.5C225.7 187.5 225.9 187.6 226 187.5C226.1 187.4 226.2 187.5 226.4 187.5C226.6 187.5 226.6 187.4 226.7 187.4C226.8 187.4 227 187.5 227.1 187.5C227.2 187.5 227.3 187.4 227.4 187.4C227.5 187.4 227.6 187.3 227.7 187.3C227.8 187.3 228 187.4 228.1 187.4C228.2 187.4 228.3 187.3 228.4 187.3C228.5 187.3 228.6 187.2 228.8 187.2C228.9 187.2 229 187.2 229.2 187.2C229.3 187.2 229.5 187.3 229.6 187.3C229.7 187.3 229.8 187.2 229.9 187.2C230 187.2 230.1 187.2 230.3 187.2C230.4 187.2 230.6 187.2 230.7 187.2C230.8 187.2 230.9 187.2 231.1 187.2C231.3 187.2 231.3 187.1 231.5 187.1C231.6 187.1 231.7 187.1 231.9 187.1C232.1 187.1 232.1 187.1 232.3 187.1C232.4 187.1 232.5 187 232.6 187C232.7 187 232.9 187.1 233 187C233.1 186.9 233.2 186.9 233.3 186.9C233.4 186.9 233.5 186.9 233.7 186.9C233.8 186.9 234 187 234.1 186.9C234.2 186.9 234.3 186.9 234.5 186.9C234.7 186.9 234.7 186.9 234.9 186.9C235 186.9 235.1 186.9 235.3 186.9C235.4 186.9 235.5 186.8 235.7 186.8C235.8 186.8 235.9 186.8 236.1 186.8C236.2 186.8 236.3 186.7 236.4 186.7C236.5 186.7 236.6 186.7 236.8 186.7C236.9 186.7 237 186.7 237.2 186.7C237.3 186.7 237.4 186.7 237.6 186.7C237.8 186.7 237.8 186.7 238 186.7C238.1 186.7 238.2 186.6 238.4 186.6C238.5 186.6 238.6 186.6 238.8 186.6C238.9 186.6 239 186.5 239.2 186.5C239.3 186.5 239.4 186.5 239.6 186.5C239.7 186.5 239.9 186.6 240 186.6C240.1 186.6 240.2 186.5 240.3 186.5C240.4 186.5 240.5 186.5 240.7 186.5C240.9 186.5 240.9 186.4 241 186.4C241.1 186.4 241.3 186.4 241.4 186.4C241.5 186.4 241.6 186.4 241.8 186.4C241.9 186.4 242 186.4 242.2 186.4C242.3 186.4 242.5 186.5 242.6 186.4C242.7 186.4 242.8 186.3 242.9 186.3C243 186.3 243.1 186.2 243.2 186.2C243.3 186.2 243.5 186.3 243.6 186.3C243.7 186.3 243.8 186.2 243.9 186.2C244 186.2 244.2 186.3 244.3 186.3C244.4 186.3 244.5 186.3 244.7 186.3C244.8 186.3 244.9 186.2 245 186.2C245.1 186.2 245.2 186.2 245.4 186.2C245.5 186.2 245.6 186.2 245.8 186.2C245.9 186.2 246 186.2 246.2 186.2C246.4 186.2 246.5 186.3 246.6 186.2C246.7 186.1 246.8 186.1 246.9 186.1C247 186.1 247.1 186 247.3 186C247.4 186 247.6 186 247.7 186C247.8 186 247.9 186 248.1 186C248.2 186 248.3 186 248.5 186C248.7 186 248.7 185.9 248.8 185.9C248.9 185.9 249.1 186 249.2 185.9C249.3 185.8 249.4 185.8 249.5 185.8C249.6 185.8 249.7 185.8 249.9 185.8C250 185.8 250.2 185.9 250.3 185.9C250.4 185.9 250.5 185.9 250.7 185.9C250.9 185.9 250.9 185.9 251.1 185.9C251.3 185.9 251.3 185.9 251.5 185.9C251.6 185.9 251.7 185.8 251.8 185.8C251.9 185.8 252 185.8 252.2 185.8C252.3 185.8 252.5 185.8 252.6 185.8C252.7 185.8 252.8 185.7 252.9 185.7C253 185.7 253.2 185.8 253.3 185.8C253.4 185.8 253.5 185.7 253.6 185.7C253.7 185.7 253.8 185.7 254 185.7C254.1 185.7 254.2 185.7 254.3 185.6C254.4 185.5 254.6 185.7 254.7 185.7C254.8 185.7 254.9 185.7 255.1 185.7C255.3 185.7 255.3 185.7 255.5 185.7C255.7 185.7 255.7 185.7 255.9 185.7C256.1 185.7 256.1 185.6 256.2 185.6C256.3 185.6 256.4 185.6 256.6 185.6C256.8 185.6 256.8 185.5 256.9 185.5C257 185.5 257.1 185.4 257.2 185.4C257.3 185.4 257.4 185.4 257.6 185.4C257.8 185.4 257.8 185.4 257.9 185.3C258 185.2 258.1 185.3 258.3 185.3C258.5 185.3 258.5 185.3 258.7 185.3C258.9 185.3 258.9 185.3 259 185.3C259.1 185.3 259.2 185.2 259.3 185.2C259.4 185.2 259.5 185.2 259.7 185.2C259.8 185.2 259.9 185.1 260 185.1C260.1 185.1 260.2 185.1 260.4 185.1C260.6 185.1 260.6 185 260.7 185C260.8 185 261 185.1 261.1 185C261.2 184.9 261.1 184.9 261.1 184.7C261.1 184.6 261.2 184.3 261.2 184.2C261.2 184.1 261.2 184.1 261.2 183.9C261.2 183.8 261.2 183.8 261.2 183.6C261.2 183.5 261.2 183.2 261.2 183C261.2 182.8 261.1 182.9 261.1 182.7C261.1 182.6 261.2 182.6 261.2 182.4C261.2 182.3 261.2 182 261.2 181.8C261.2 181.6 261.1 181.7 261.1 181.5C261.1 181.3 261.1 181.4 261.1 181.2C261.1 181.1 261 181 261 180.9C265 181.2 265.2 181.1 265 181Z" fill="url(#paint2_radial_7504_110779)"/>
</g>
<g opacity="0.49">
<path d="M266.6 182.1C265.3 181.4 263.9 181.1 262.5 181.1C230.3 181.7 198.6 183.5 166.5 184.7C158.3 185 169.6 187.4 171.6 187.7C175.1 188.6 178.6 189.4 182.2 190.2C188.4 191.9 194.9 190.1 201.3 190C216.6 188.7 231.6 187.3 247 186.5C247.4 186.5 247.8 186.4 248.2 186.4C250 186.2 251.7 186.1 253.5 185.9C255.6 185.7 257.7 185.6 259.8 185.4C261.9 185.2 264 185.1 266.1 184.9C267 184.8 268 184.7 268.9 184.7C269.3 184.7 269.8 184.6 270.2 184.6C270.4 184.6 270.6 184.6 270.8 184.6C271.1 184.6 271.4 184.5 271.7 184.4C271.8 184.1 271.6 184 271.4 184C271.2 184 271 183.9 270.8 183.8C270.3 183.6 269.9 183.5 269.4 183.3C268.4 182.9 267.5 182.6 266.6 182.1Z" fill="url(#paint3_linear_7504_110779)"/>
</g>
<path d="M188.8 139.5C189 139.5 189.1 139.6 189.3 139.6C189.2 139.6 189 139.6 188.8 139.5Z" fill="#526188"/>
<g opacity="0.9">
<path d="M268.2 148.5C268.2 148.5 199.8 141.3 192.5 140.6C191 140.4 189.8 140.3 188.8 140.3L188.7 161.2C191.8 159.8 195.1 158.2 197.3 157.6C210.9 154.7 259 161 270.3 160.8C270.3 160.7 268.9 149.5 268.2 148.5Z" fill="#253465"/>
<path opacity="0.77" d="M268.9 151.3C258.9 150.9 228.3 147.3 220.2 147.1C202.8 145.7 199.3 147.3 188.7 152.1V161.3C191.8 159.9 195.1 158.3 197.3 157.7C210.7 154.8 259.3 161.1 270.3 160.9C270.3 160.7 269.7 153.1 268.9 151.3Z" fill="#253465"/>
</g>
<path d="M200.2 173.2C199.4 173.2 197.4 173.8 198.4 173.7C203 173.6 202.9 177.9 202.7 182.1C203.6 182.5 204 182.8 204.6 183.1C205.5 180.1 205.5 173.9 200.2 173.2Z" fill="#742720"/>
<path d="M252.1 175.4C251.5 175.4 249.3 176 250.1 175.9C252 175.7 254.2 176.2 254.7 181.5C255.4 181.8 255.9 182 256.4 182.3C256.3 181.3 256.7 175.6 252.1 175.4Z" fill="#742720"/>
<path d="M204 181.3C203.4 191.9 190.5 188.1 191.4 179.6C191.7 175.6 192.5 173 199.8 173.6C202.9 173.9 204.1 177.4 204 181.3Z" fill="#171717"/>
<path d="M204.2 179.7C204.2 179.4 204.1 179 204.1 178.6C203.8 177 203.1 175.1 201.5 174.2C200.6 173.7 199.4 173.6 198.4 173.7C193.9 174.4 194.2 179.8 194.6 183C194.7 185.5 196.5 188.1 199.4 187.9C200.8 187.9 201.6 187.2 202.5 186.3C203.3 185.4 203.8 183.9 204.1 182.7C204.3 181.6 204.3 180.8 204.2 179.7ZM196.6 180.7C196.6 180.6 196.6 180.4 196.6 180.3C196.6 179.8 196.7 179.3 196.8 178.8C196.8 178.7 196.9 178.6 196.9 178.5C197.4 176.7 199.5 175.4 201.1 177C202.3 178.2 202.4 179.9 202.4 181.3C201.8 186.6 196.6 185.5 196.6 180.7Z" fill="#0C1F24"/>
<path opacity="0.3" d="M195.2 182C196.6 188.7 203.1 189 203.9 181.5C204.1 180 204.1 187.9 199.4 187.6C195.5 187.3 195.2 182 195.2 182Z" fill="#565151"/>
<path d="M196.6 180.3C196.6 186.2 202.7 186.4 202.3 180.1C201.7 174.5 196.8 175.4 196.6 180.3Z" fill="#565151"/>
<path d="M198 184.2C196.2 182.7 196.2 178 198.1 176.8C200 178.1 199.8 183.2 198 184.2Z" fill="#A6A6A6"/>
<path d="M196.8 182.1C196.5 181 196.5 179.5 196.9 178.5C197.8 179.1 197.7 181.6 196.8 182.1Z" fill="#565151"/>
<path d="M202.3 180.1C201.9 176.8 200.2 175.8 198.5 176.4C201 177.6 200.8 183.7 198.3 184.4C200.7 185.7 202.5 183.5 202.3 180.1Z" fill="#424040"/>
<path d="M255.3 181.3C255 188.6 244.3 186.1 245 180.1C245.2 177.3 245.8 175.4 251.8 175.9C254.4 176.2 255.4 178.6 255.3 181.3Z" fill="#171717"/>
<path d="M252.6 176.1C247.6 174.8 247 179.9 247.7 182.4C247.8 184.3 249.6 185.8 250.9 185.8C256.3 186.6 257.3 177.8 252.6 176.1ZM249.6 179.2C249.9 178.6 250.3 178.1 251 177.9C255.2 177.2 254.9 185.3 250.8 183.5C249.7 182.9 249.4 181.6 249.3 180.5C249.3 180.4 249.3 180.3 249.3 180.3V180.2C249.3 180.1 249.3 180.1 249.3 180C249.3 180 249.3 180 249.3 179.9C249.3 179.9 249.3 179.9 249.3 179.8V179.7C249.3 179.6 249.3 179.6 249.3 179.5C249.3 179.4 249.4 179.3 249.4 179.3C249.6 179.3 249.6 179.2 249.6 179.2Z" fill="#0C1F24"/>
<path opacity="0.3" d="M248.2 181.8C249.4 186.4 254.7 186.7 255.3 181.4C255.4 180.3 255.6 185.8 251.7 185.7C248.5 185.5 248.2 181.8 248.2 181.8Z" fill="#565151"/>
<path d="M249.3 180.6C249.3 182.3 250.4 183.7 251.7 183.8C253 183.8 254.2 182.6 254 180.5C253.4 176.6 249.4 177.1 249.3 180.6Z" fill="#565151"/>
<path d="M250.5 183.3C249 182.2 248.9 179 250.5 178.1C252 179 252 182.7 250.5 183.3Z" fill="#A6A6A6"/>
<path d="M249.5 181.8C249.2 181 249.2 180 249.5 179.3C250.3 179.8 250.3 181.5 249.5 181.8Z" fill="#565151"/>
<path d="M254 180.5C253.6 178.2 252.3 177.5 250.9 177.9C252.9 178.7 252.9 183 250.9 183.5C252.7 184.4 254.2 182.8 254 180.5Z" fill="#424040"/>
<path d="M273 176.5C272.9 175.6 271.8 175.9 271.8 175.6C271.8 175.4 271.5 171.3 271.2 167.4C270.8 161.2 270.2 153.5 268.8 147.8C262.2 147.1 253.9 146.1 247.7 145.4C246.4 144.4 245.2 144.3 243.1 144.1C240 143.8 236.8 143.5 233.6 143.1C227.3 142.4 220.9 141.8 215.2 141.1C214.7 141.2 212.2 141.6 211.5 141.7C206.3 141.1 194.5 139.9 189.3 139.5C189.2 139.5 189 139.5 188.9 139.4V139.9C191.9 139.9 194.8 140.5 199.3 140.8C214.8 142.4 232.4 144.2 250.9 145.9C255.6 146.4 262.4 147.2 266.9 147.7C267.7 147.8 268.2 147.9 268.5 147.9C268.8 147.9 269.1 149.9 269.4 152.4C269.7 155 270 158 270.4 160.6C256.9 159.7 241.1 158.6 228.8 157.9C228.8 157.9 228.8 158 228.7 158C226.3 157.9 222.6 157.6 220.5 157.5C220.5 157.5 220.5 157.4 220.6 157.4C218.2 157.2 215.9 157.1 213.6 156.9C211.2 156.7 208.8 156.6 206.4 156.6C205.6 156.6 204.9 156.6 204.2 156.6C204 156.6 203.9 156.6 203.7 156.6C204.1 156.6 204.5 156.6 204.9 156.6C200.3 156.8 196 157.5 192.5 159.8C192.2 160 191.8 160.3 191.5 160.5C190.8 161.1 190 161.8 189.3 162.3C189.1 162.4 189 162.5 188.8 162.7L188.7 182.8C190.9 182.8 193.1 182.8 195.2 182.8C195.1 180.7 195.2 177.6 196.2 175.5C197.2 173.4 200.3 172 202.4 173.9C204.8 176 205 179.7 204.7 182.4C204.7 182.6 204.7 182.7 204.6 182.8C216 182.6 228.4 182.5 241 182.3C241.9 182.3 243.1 182.3 244 182.3C245.2 182.3 246.7 182.3 247.9 182.2C247.8 182 247.1 177.4 249.8 175.7C250.4 175.4 251.3 175.2 252.1 175.3C255.8 175 256 181.5 256.2 182.1C257.2 182.1 272.5 181.5 272.6 181.5C272.8 181.6 273.1 177.6 273 176.5Z" fill="#C92A41"/>
<path d="M273.1 176.5C273.1 176 272.5 175.8 271.9 175.7C271.7 175.4 271.6 171.4 271.2 167.4C270.8 161.2 270.2 153.5 268.8 147.8C262.2 147.1 253.9 146.1 247.7 145.4C246.2 144.1 243.7 144.3 241.3 144C237 143.6 231.6 143 227.5 142.6C223.8 142.2 218.4 141.6 215.1 141.2C214.5 141.3 212.2 141.7 211.5 141.8C206.3 141.2 194.6 140 189.4 139.6C189.2 139.6 189.1 139.6 188.9 139.6V140.1C189.4 140.1 189.8 140.1 190.2 140.1C197.1 140.8 208.3 141.9 216.7 142.8C227.5 144 241.7 145.2 254.2 146.5C258.2 146.9 264 147.6 267.5 148C268.8 148 268.6 148.5 268.9 149.8C269.5 153.1 269.8 157.6 270.3 160.8C270.3 160.8 270.3 160.8 270.2 160.8C255.3 159.8 238.6 158.8 225 158C221 157.8 217.2 157.5 213.4 157.3C205.5 156.8 198.5 156.2 192.4 160.1C192.3 160.1 192.3 160.2 192.2 160.2C191.9 160.4 191.6 160.6 191.4 160.8C190.7 161.4 189.9 162.1 189.2 162.6C189 162.7 188.9 162.9 188.7 163L188.6 183.1C190.8 183.1 193 183.1 195.2 183.1C195.2 182.9 195.2 182.8 195.2 182.6C195.3 180.1 195.2 177.2 196.8 175.1C197.1 174.7 197.4 174.4 197.8 174.2C198.1 174 198.3 173.9 198.6 173.8C204.3 172.1 205.3 179.8 204.7 183.3C216.9 183.1 230 183 243.6 182.8H244.1C245.3 182.8 246.8 182.8 248 182.7C247.9 182.6 247 178.2 249.9 176.2C250.6 175.9 251.4 175.7 252.2 175.8C256.1 176 255.8 180.4 256.3 182.6C256.4 182.6 272.7 182 272.7 182C272.9 181.6 273.2 177.6 273.1 176.5Z" fill="url(#paint4_linear_7504_110779)"/>
<path d="M269.6 164.5C243.3 163.2 219.7 162.7 197.8 162L269.6 164.5Z" fill="#111E24"/>
<path d="M269.6 164.5C246.2 163.5 221.2 162.9 197.8 162C221.4 162.6 246.1 163.2 269.6 164.5Z" fill="#231F20"/>
<path d="M276.7 167.2C249.7 166.1 225.5 165.7 203.1 165.2L276.7 167.2Z" fill="#111E24"/>
<path d="M276.7 167.2C252.7 166.4 227.1 165.9 203.1 165.2C227.2 165.6 252.6 166 276.7 167.2Z" fill="#231F20"/>
<path d="M286.2 169C258.2 168.3 233.2 168.3 210.1 168.2L286.2 169Z" fill="#111E24"/>
<path d="M286.2 169C261.4 168.6 234.9 168.5 210.1 168.2C235.1 168.2 261.3 168.2 286.2 169Z" fill="#231F20"/>
<path d="M189.9 184.2H189.3V156.6H190L189.9 184.2Z" fill="url(#paint5_radial_7504_110779)"/>
<path d="M270.3 160.1C270.2 158.5 269.5 152.1 269 149.7C268.8 148.6 268.6 148.3 268.6 148C242.8 145 219.5 142.9 197.9 140.7C193.9 140.5 191 140 188.9 139.8L188.8 163C189 162.8 189.1 162.7 189.3 162.5C190 161.9 190.7 161.2 191.5 160.7C191.8 160.5 192.1 160.3 192.3 160.1C192.4 160.1 192.4 160 192.5 160C201.1 154.8 211.6 157.5 222.3 157.7C236.1 158.5 255.2 159.7 270.3 160.7C270.3 160.6 270.3 160.5 270.3 160.1ZM190.3 159.6C190.3 158.4 190.3 156.6 190.3 154.8C190.3 153.8 190.3 152.8 190.3 151.8C190.3 151.7 190.3 151.6 190.3 151.4C190.3 151.1 190.3 150.8 190.3 150.5C190.3 150.2 190.3 150 190.3 149.8C190.3 149.6 190.3 149.3 190.3 149.1C190.3 148.7 190.3 148.3 190.3 148C190.3 147.1 190.2 146.3 190.2 145.4C190.2 143.8 189.8 142 190.3 141.8C191.8 141.5 195.4 142.2 198 142.4C200 142.6 206.3 143.3 206.6 143.3C207.1 143.4 207.1 144 207.1 144.7C207.1 147.5 207.2 151.7 207.2 154.8C207.2 155.3 207.2 155.6 207.2 155.9C207.2 156 207.2 156.1 207.2 156.2C200.8 155.7 195.6 157.6 190.3 159.6ZM214.8 156.5C214.4 156.5 214 156.5 213.7 156.4C211.9 156.3 210.2 156.2 208.5 156.1C208.5 155.5 208.3 150.8 208.3 148.6C208.2 147 208.2 144.7 208.1 143.3C212.1 143.7 216.7 144.2 220.8 144.6C221.1 147.7 221.4 153.5 221.5 156.9C219.3 156.7 217 156.6 214.8 156.5ZM234.6 157.8C232.2 157.6 229.8 157.5 227.9 157.4C226 157.3 223.9 157.1 222.6 157C222.4 153.5 222 147.8 221.8 144.6C224.7 144.9 230.7 145.5 233.7 145.8C234.1 148.2 234.6 156 234.6 157.8ZM235.8 157.9C235.7 155.8 235.2 148.9 234.7 146C236.1 146.1 244.3 146.9 245.9 147C246.2 148.5 246.4 150.4 246.6 152.1C246.9 155 247 158.5 247 158.5C247 158.5 241.4 158.2 235.8 157.9ZM247.9 158.6C247.9 157.5 247.5 150.1 246.9 147.8C246.8 147.3 246.7 147 246.7 147C248.4 147.2 250.5 147.4 252.5 147.6H252.6C254.2 147.8 255.9 147.9 257.3 148.1C257.9 150.1 258.3 158.1 258.4 159.3C254.9 159.1 251.2 158.9 247.9 158.6ZM259.4 159.5C259.3 157.1 258.6 150.7 258.3 148.1L267.5 149C268.9 151.4 269 157.5 269.5 160.1C270 160.1 262.1 159.6 259.4 159.5Z" fill="#111E24"/>
<path d="M160.4 144.4C157.2 144.8 156.3 148.2 155.6 151C155.3 152.6 153.2 158 154.5 158.9C155.6 159.4 155.5 157 155.8 156.1C155.8 155.6 156.4 154 155.8 154C155.6 154 155.5 154 155.5 154C155.7 153.7 157.4 148.9 158.7 149.9C158.9 150.2 159 150.7 159.2 150.9C159.6 151.2 161.4 151.8 161.4 151.8C161.6 151.1 161.8 150.2 162 149.5L162.1 149.2C161.7 149.1 159.2 148.8 158.4 149C158 149.1 156.8 150.3 156.8 150.3C157.8 145.2 159.1 144.9 164.1 144.4C164.2 144.2 164.4 143.9 164.6 143.7C163.1 143.9 161.4 144.2 160.4 144.4ZM159.4 149.3H159.7C159.7 149.7 159.6 150.3 159.6 150.7C159.2 150.7 159 149.4 159.1 149.3H159.4Z" fill="#E7E7E7"/>
<path opacity="0.29" d="M155.8 154.2C155.6 154.2 155.4 154.1 155.3 154.4C155.3 154.7 154.6 157.9 154.7 158.1C155.4 159.3 155.9 153.7 155.8 154.2Z" fill="#6C6E70"/>
<path d="M189.2 139.6C187.6 139.3 185.1 138.8 183.9 140.9C182 142.6 180 160.2 179.3 165C179 165 173.7 165.2 173.5 166C173.1 166.4 173.3 166.5 172.2 166.6C171.1 166.7 162.6 166.9 161.3 166.8C160 166.8 159.1 166.5 159 165.4C159.1 164.3 159.3 163.3 159.5 162.2C160.5 156.3 161.2 149 164.2 144.1C167.7 139 185 138.4 189.2 139.6Z" fill="#526188"/>
<g opacity="0.9">
<path d="M189.3 140.2C185.4 139.7 184.5 140.4 183.4 144.2C182.1 148.8 181 163 181 163C181 163 180.5 164.2 183.3 163.6C184.6 163.3 187 162.1 189.4 160.9V140.2H189.3Z" fill="#253465"/>
<path opacity="0.77" d="M189.3 151.7C187.7 152.4 186 153.3 183.9 154.2C182.5 154.5 182 154.4 181.7 154.2C181.2 158.8 180.9 163 180.9 163C180.9 163 180.4 164.2 183.2 163.6C184.5 163.3 186.9 162.1 189.3 160.9V151.7Z" fill="#253465"/>
</g>
<g opacity="0.54">
<path opacity="0.5" d="M180.8 154.3C180.2 158.3 179.7 162 179.4 164.8C178.8 164.8 174 165 173.6 165.8C173.2 166.2 173.4 166.3 172.3 166.4C171.2 166.5 162.7 166.7 161.4 166.6C159.3 166.6 158.8 165.8 159.2 164C159.8 160 160.5 155.8 161.3 151.9C161 154.9 160.2 156.2 163.3 156.3C164.6 156.3 173.1 156 174.2 155.9C176.7 155.2 177.5 154.3 180.8 154.3Z" fill="#253465"/>
</g>
<path d="M177.6 180.3C177.1 189.6 166.7 186.9 167.5 179.6C167.8 176.1 167.6 173.1 173.9 173.7C176.6 173.9 177.7 176.9 177.6 180.3Z" fill="#171717"/>
<path d="M178.9 178.9C178.9 178.6 178.8 178.3 178.8 178C178.5 176.6 178 174.9 176.5 174.1C175.7 173.6 174.7 173.5 173.8 173.7C169.9 174.3 170.2 179 170.5 181.8C170.6 184 172.1 186.2 174.7 186.1C175.9 186.1 176.7 185.5 177.4 184.7C178.1 183.9 178.6 182.6 178.8 181.6C179 180.6 179 179.9 178.9 178.9Z" fill="#0C1F24"/>
<path d="M172.3 182.8C170.7 181.5 170.7 177.4 172.4 176.3C174.1 177.5 173.9 182 172.3 182.8Z" fill="#A6A6A6"/>
<path d="M171.3 181C171 180.1 171 178.7 171.4 177.8C172.2 178.4 172.1 180.6 171.3 181Z" fill="#565151"/>
<path d="M170.8 177.8C170.7 183.5 175.8 183.3 175.5 177.4C174.9 172 170.9 173.1 170.8 177.8Z" fill="#565151"/>
<path d="M171.9 181.4C170.4 180 170.4 175.5 172.1 174.3C173.5 175.5 173.3 180.4 171.9 181.4Z" fill="#A6A6A6"/>
<path d="M170.9 179.5C170.6 178.5 170.6 177 171 176C171.8 176.6 171.7 179 170.9 179.5Z" fill="#565151"/>
<path d="M175.5 177.4C175.2 174.3 173.9 173.4 172.4 174C174.5 175.1 174.2 180.9 172.2 181.7C174.1 182.7 175.6 180.5 175.5 177.4Z" fill="#424040"/>
<path d="M180 163.3L179.2 169.7L158.6 169.1C158.7 168 159.1 165 159.3 164L179.6 163.3C179.6 163.3 179.9 163.3 180 163.3Z" fill="#192B34"/>
<path d="M189.3 162.5C189.2 162.5 189.2 162.6 189.1 162.6C186.5 164.9 183.5 166.6 180.4 166.3C180.6 163.5 181.2 156.1 181.8 152.3C181.9 151.4 182.1 150.4 182.2 149.5C182.9 146.2 183.2 139.9 187.1 140C187.8 140 188.6 140 189.3 140V139.6C189.2 139.6 189.2 139.6 189.1 139.6C184.5 138.6 183.4 140.5 182.4 145C181.4 149.2 180.9 153.6 180.3 157.8C180 160.2 179.5 164.4 179.3 166.2C179.3 166.8 179.1 166.7 178.5 166.7C177.9 166.7 176.7 166.8 175.1 166.9C173.5 167 173.3 167.7 173 167.9C170.5 168.2 163.5 168.1 160.5 168.2C158.4 168.1 159.3 166.9 159.1 166C158.7 164.9 158.4 171.1 158.3 172.2C158.2 172.9 158.3 173.4 158.2 174C158.1 174.4 158 174.4 158.1 174.8C158.1 176.6 158.1 180.2 158.3 181.6C164.7 182.2 172.9 183 179.2 183.6C182.4 183.5 185.9 183.4 189.3 183.3V162.5Z" fill="#C92A41"/>
<path d="M189.3 162.5L189.2 162.6C186.6 164.9 183.6 166.6 180.5 166.3C180.7 162.4 181.5 154.1 182.3 149.4C182.8 146.4 183.4 141.9 185.4 140.3C186.5 139.7 188.1 139.8 189.3 139.9V139.5C189.2 139.5 189.2 139.5 189.1 139.5C187.6 139.3 186.1 138.9 184.8 139.7C182 142 181.5 150.3 180.7 154.1C180.2 157.6 179.5 162.9 179.2 166C179.2 170.2 179.6 179.8 179.7 183.4C181.6 183.2 183.8 183.2 185.7 183.2C186.8 183.2 193.9 183 195.1 183L189.3 162.5Z" fill="url(#paint6_linear_7504_110779)"/>
<path d="M189.3 156.7H189.2V184.4H189.3V156.7Z" fill="url(#paint7_radial_7504_110779)"/>
<path d="M179.4 183.5C179.4 182.4 179.2 173 179.2 172.6C179.2 172.2 178.8 172.5 178 172.5C177 172.5 158.9 172.2 158.4 172.2C158.3 172.6 158.3 173.4 158.3 173.9C158.3 174.6 159.6 174.9 160.1 175.1C160.6 175.2 159.8 173.1 159.8 173C159.8 172.9 162.6 172.7 164.8 172.7C167 172.7 171.5 172.9 171.4 173.1C171.4 173.2 171.1 174.3 170.8 175.2C170.5 176.1 171.2 175.8 172.6 175.6C174.1 175.4 175.1 175.1 176.3 174.9C178.4 174.6 178.5 174.2 178.3 172.8C178.3 172.8 178.5 172.8 178.7 172.8C178.9 172.8 178.9 172.8 178.9 172.9C178.9 173 179.2 182.6 179.2 183.7L179.4 183.5Z" fill="#231E1F"/>
<path d="M189.3 139.9C184.9 139.2 183.5 140.2 182.3 149.1C180.5 160.7 179.6 172 180.3 183.5C180.4 183.5 180.5 183.5 180.5 183.5C180.2 178.7 180.1 171.3 180.4 166.6C182.8 166.6 187.2 165.2 189 162.7C189.1 162.6 189.1 162.6 189.2 162.5V139.9H189.3ZM184.1 161.9C182.5 162.5 181.5 162.9 181.4 162.9C181.3 159.8 182.3 154.3 182.7 150.6C183.7 150.7 185.8 150.8 187.3 150.9C187.4 150.9 187.7 150.9 188 150.9C188.1 150.9 188.2 150.9 188.2 150.9C188.2 151.4 188.2 151.9 188.2 152.4C188.3 155 188.3 158 188.4 160.2C186.8 160.9 185.5 161.4 184.1 161.9Z" fill="#111E24"/>
<path d="M182.4 140.8C176.1 141.3 176.4 145.3 174.8 150.3C174.4 150.4 174.3 150.4 174.2 151.1C174.1 152 173.7 154.3 173.8 155.4C173.8 155.8 174.1 156.1 174.5 156.1C175.3 156 176 156.2 176.2 155.3C176.5 154.1 176.6 152.2 176.7 151.2C176.7 150.8 176.8 150.4 176.6 150.3C176.3 150.3 176 150.2 175.7 150.3C176.1 149.4 178.1 144.9 179 147.3C179.3 148.2 181 148.6 181.7 149C181.9 148.1 182.2 146.5 182.4 145.6C180.1 145.7 178.4 145.4 176.8 147.3C177.8 142.4 179.1 141.7 183.9 141.2C184 141 184.2 140.8 184.3 140.7C183.5 140.6 182.9 140.7 182.4 140.8ZM179.8 146.2C179.8 146.5 179.7 147.3 179.7 147.6C179.3 147.6 179.1 146.3 179.1 146.2H179.8Z" fill="white"/>
<path opacity="0.29" d="M176.3 150.4C176 150.4 175.1 150.4 174.8 150.7C174.7 150.8 174.4 153.2 174.4 154C174.3 154.8 174.2 155 174.5 155C175.2 154.8 175.7 155.7 176 155.5C176 155.3 176.3 152.4 176.3 151.6C176.4 150.8 176.6 150.4 176.3 150.4Z" fill="#6C6E70"/>
<defs>
<radialGradient id="paint0_radial_7504_110779" cx="0" cy="0" r="1" gradientUnits="userSpaceOnUse" gradientTransform="translate(170.174 148.364) scale(152.227 152.227)">
<stop stop-color="#00B7DA"/>
<stop offset="0.912" stop-color="#0076D0"/>
</radialGradient>
<radialGradient id="paint1_radial_7504_110779" cx="0" cy="0" r="1" gradientUnits="userSpaceOnUse" gradientTransform="translate(212.008 183.645) rotate(-3.43449) scale(71.4292 8.99503)">
<stop stop-color="#192B34"/>
<stop offset="0.3782" stop-color="#1B2C35" stop-opacity="0.5435"/>
<stop offset="0.5645" stop-color="#233037" stop-opacity="0.3186"/>
<stop offset="0.7083" stop-color="#30373B" stop-opacity="0.1449"/>
<stop offset="0.8284" stop-color="#424040" stop-opacity="0"/>
</radialGradient>
<radialGradient id="paint2_radial_7504_110779" cx="0" cy="0" r="1" gradientUnits="userSpaceOnUse" gradientTransform="translate(193.297 185.723) rotate(3.81701) scale(33.4155 4.13201)">
<stop stop-color="#192B34"/>
<stop offset="0.1754" stop-color="#192B34" stop-opacity="0.9976"/>
<stop offset="0.2056" stop-color="#192B34" stop-opacity="0.9972"/>
<stop offset="0.4481" stop-color="#1C2C35" stop-opacity="0.609"/>
<stop offset="0.6061" stop-color="#243137" stop-opacity="0.3559"/>
<stop offset="0.7396" stop-color="#33383C" stop-opacity="0.1422"/>
<stop offset="0.8284" stop-color="#424040" stop-opacity="0"/>
</radialGradient>
<linearGradient id="paint3_linear_7504_110779" x1="218.12" y1="176.069" x2="216.691" y2="189.713" gradientUnits="userSpaceOnUse">
<stop offset="0.8376" stop-color="#192B34"/>
<stop offset="1" stop-color="#424040" stop-opacity="0"/>
</linearGradient>
<linearGradient id="paint4_linear_7504_110779" x1="273.329" y1="162.504" x2="176.87" y2="161.12" gradientUnits="userSpaceOnUse">
<stop stop-color="#E82850"/>
<stop offset="0.9993" stop-color="#C92A41"/>
</linearGradient>
<radialGradient id="paint5_radial_7504_110779" cx="0" cy="0" r="1" gradientUnits="userSpaceOnUse" gradientTransform="translate(190.006 156.92) scale(38.8382 38.8375)">
<stop stop-color="#663444" stop-opacity="0.6"/>
<stop offset="0.3408" stop-color="#563942" stop-opacity="0.2916"/>
<stop offset="0.6629" stop-color="#424040" stop-opacity="0"/>
</radialGradient>
<linearGradient id="paint6_linear_7504_110779" x1="297.221" y1="163.053" x2="179.415" y2="161.363" gradientUnits="userSpaceOnUse">
<stop stop-color="#E84050"/>
<stop offset="0.9993" stop-color="#C92A41"/>
</linearGradient>
<radialGradient id="paint7_radial_7504_110779" cx="0" cy="0" r="1" gradientUnits="userSpaceOnUse" gradientTransform="translate(189.818 156.984) scale(38.4734 38.9828)">
<stop stop-color="#663444" stop-opacity="0.6"/>
<stop offset="0.3408" stop-color="#563942" stop-opacity="0.2916"/>
<stop offset="0.6629" stop-color="#424040" stop-opacity="0"/>
</radialGradient>
</defs>
</svg>
