<svg width="44" height="20" viewBox="0 0 44 20" fill="none" xmlns="http://www.w3.org/2000/svg">
<g id="LOB">
<path id="Vector" d="M43 19.3H18.8H0.5V7.1C0.5 3.5 3.40001 0.5 7.10001 0.5H43.1V19.3H43Z" fill="#D84E55"/>
<g id="Group">
<g id="Group_2">
<path id="Vector_2" d="M10.2 15.1001V4.6001H14.9C16.1 4.6001 17 4.80009 17.7 5.30009C18.4 5.80009 18.7 6.40009 18.7 7.30009C18.7 7.90009 18.6 8.3001 18.3 8.7001C18 9.1001 17.7 9.4001 17.3 9.6001C16.9 9.8001 16.4 9.90009 15.9 9.90009L16.2 9.40009C16.8 9.40009 17.3 9.5001 17.8 9.7001C18.3 9.9001 18.6 10.2001 18.9 10.6001C19.2 11.0001 19.3 11.5001 19.3 12.1001C19.3 13.0001 19 13.7001 18.3 14.2001C17.6 14.7001 16.6 14.9001 15.3 14.9001H10.2V15.1001ZM11.7 13.9001H15.2C16 13.9001 16.7 13.8001 17.1 13.5001C17.5 13.2001 17.8 12.8001 17.8 12.2001C17.8 11.6001 17.6 11.1001 17.1 10.9001C16.7 10.6001 16 10.5001 15.2 10.5001H11.6V9.2001H14.8C15.6 9.2001 16.1 9.10009 16.6 8.80009C17 8.50009 17.2 8.1001 17.2 7.5001C17.2 6.9001 17 6.5001 16.6 6.2001C16.2 5.9001 15.6 5.80009 14.8 5.80009H11.7V13.9001Z" fill="white"/>
<path id="Vector_3" d="M24.6 15.2002C23.9 15.2002 23.3 15.1002 22.8 14.8002C22.3 14.6002 21.9 14.2002 21.6 13.7002C21.3 13.2002 21.2 12.5002 21.2 11.8002V7.2002H22.6V11.6002C22.6 12.4002 22.8 13.0002 23.2 13.4002C23.6 13.8002 24.1 14.0002 24.8 14.0002C25.3 14.0002 25.7 13.9002 26.1 13.7002C26.5 13.5002 26.8 13.2002 27 12.8002C27.2 12.4002 27.3 11.9002 27.3 11.4002V7.30019H28.7V15.3002H27.3V13.2002L27.5 13.8002C27.2 14.3002 26.9 14.7002 26.3 15.0002C25.9 15.0002 25.3 15.2002 24.6 15.2002Z" fill="white"/>
<path id="Vector_4" d="M33.6999 15.2C32.9999 15.2 32.3999 15.1 31.7999 14.9C31.1999 14.7 30.6999 14.5 30.3999 14.2L30.9999 13.1C31.2999 13.3 31.7999 13.5 32.2999 13.7C32.7999 13.9 33.2999 13.9 33.7999 13.9C34.4999 13.9 34.9999 13.8 35.1999 13.6C35.4999 13.4 35.5999 13.1 35.5999 12.8C35.5999 12.6 35.4999 12.4 35.2999 12.2C35.0999 12.1 34.8999 12 34.5999 11.9C34.2999 11.8 33.9999 11.8 33.5999 11.7C33.1999 11.6 32.8999 11.6 32.4999 11.5C32.0999 11.4 31.7999 11.3 31.4999 11.1C31.1999 10.9 30.9999 10.7 30.7999 10.5C30.5999 10.2 30.4999 9.89999 30.4999 9.39999C30.4999 8.89999 30.5999 8.5 30.8999 8.1C31.1999 7.7 31.5999 7.5 31.9999 7.3C32.4999 7.1 33.0999 7 33.7999 7C34.2999 7 34.7999 7.1 35.3999 7.2C35.8999 7.3 36.3999 7.5 36.6999 7.7L36.0999 8.8C35.6999 8.6 35.3999 8.4 34.9999 8.3C34.5999 8.2 34.1999 8.2 33.7999 8.2C33.1999 8.2 32.6999 8.3 32.3999 8.5C32.0999 8.7 31.8999 9 31.8999 9.3C31.8999 9.6 31.9999 9.79999 32.1999 9.89999C32.3999 9.99999 32.5999 10.2 32.8999 10.2C33.1999 10.2 33.4999 10.3 33.8999 10.4C34.2999 10.5 34.5999 10.5 34.9999 10.6C35.3999 10.7 35.6999 10.8 35.9999 11C36.2999 11.1 36.4999 11.4 36.6999 11.6C36.8999 11.9 36.9999 12.2 36.9999 12.7C36.9999 13.2 36.8999 13.6 36.5999 13.9C36.2999 14.3 35.8999 14.5 35.3999 14.7C35.0999 15.1 34.3999 15.2 33.6999 15.2Z" fill="white"/>
</g>
</g>
</g>
</svg>
