<svg width="121" height="25" viewBox="0 0 121 25" fill="none" xmlns="http://www.w3.org/2000/svg">
<g id="Group">
<path id="Vector" d="M108.9 24.3H12.8999C6.2999 24.3 0.899902 18.9 0.899902 12.3C0.899902 5.70005 6.2999 0.300049 12.8999 0.300049H108.9C115.5 0.300049 120.9 5.70005 120.9 12.3C120.9 18.9 115.5 24.3 108.9 24.3Z" fill="white"/>
<g id="Group_2">
<g id="Group_3">
<g id="Group_4">
<path id="Vector_2" d="M32.7 18.4001C31.8 18.4001 30.9 18.3001 30.1 18.0001C29.3 17.8001 28.6 17.4001 28.1 17.1001L29 15.1001C29.5 15.4001 30 15.7001 30.7 15.9001C31.4 16.1001 32 16.2001 32.7 16.2001C33.2 16.2001 33.6 16.1001 33.9 16.0001C34.2 15.9001 34.4 15.8001 34.6 15.6001C34.7 15.4001 34.8 15.2001 34.8 15.0001C34.8 14.7001 34.7 14.5001 34.4 14.3001C34.1 14.1001 33.9 14.0001 33.5 13.9001C33.1 13.8001 32.7 13.7001 32.2 13.6001C31.7 13.5001 31.3 13.4001 30.8 13.2001C30.3 13.0001 29.9 12.9001 29.5 12.6001C29.1 12.4001 28.8 12.0001 28.6 11.7001C28.4 11.3001 28.3 10.8001 28.3 10.2001C28.3 9.6001 28.5 9.0001 28.8 8.4001C29.1 7.8001 29.7 7.4001 30.4 7.1001C31.1 6.8001 32 6.6001 33 6.6001C33.7 6.6001 34.4 6.7001 35.1 6.9001C35.8 7.1001 36.4 7.3001 36.9 7.6001L36.1 9.6001C35.6 9.3001 35.1 9.1001 34.5 8.9001C33.9 8.7001 33.5 8.7001 33 8.7001C32.5 8.7001 32.1 8.8001 31.8 8.9001C31.5 9.0001 31.3 9.2001 31.1 9.4001C30.9 9.6001 30.9 9.80011 30.9 10.0001C30.9 10.3001 31 10.5001 31.3 10.7001C31.6 10.9001 31.8 11.0001 32.2 11.1001C32.6 11.2001 33 11.3001 33.5 11.4001C34 11.5001 34.4 11.6001 34.9 11.8001C35.4 11.9001 35.8 12.1001 36.2 12.4001C36.6 12.6001 36.9 12.9001 37.1 13.3001C37.3 13.7001 37.5 14.2001 37.5 14.8001C37.5 15.4001 37.3 16.0001 37 16.5001C36.7 17.0001 36.1 17.4001 35.4 17.8001C34.7 18.2001 33.8 18.4001 32.7 18.4001Z" fill="#1F3059"/>
<path id="Vector_3" d="M44.2999 18.4C42.6999 18.4 41.4999 18 40.5999 17.1C39.6999 16.2 39.2999 14.9 39.2999 13.3V7H41.8999V13.2C41.8999 14.3 42.0999 15 42.5999 15.5C42.9999 16 43.5999 16.2 44.3999 16.2C45.1999 16.2 45.7999 16 46.1999 15.5C46.5999 15 46.8999 14.3 46.8999 13.2V7H49.4999V13.3C49.4999 15 49.0999 16.2 48.1999 17.1C47.2999 18 45.8999 18.4 44.2999 18.4Z" fill="#1F3059"/>
<path id="Vector_4" d="M51.9 18.2V7H56.8C57.8 7 58.7 7.2 59.4 7.5C60.1 7.8 60.7 8.29999 61.1 8.89999C61.5 9.49999 61.7 10.2 61.7 11.1C61.7 11.9 61.5 12.7 61.1 13.3C60.7 13.9 60.1 14.4 59.4 14.7C58.7 15 57.8 15.2 56.8 15.2H53.4L54.6 14V18.3H51.9V18.2ZM54.5 14.2L53.3 13H56.6C57.4 13 58 12.8 58.4 12.5C58.8 12.2 59 11.7 59 11.1C59 10.5 58.8 10 58.4 9.7C58 9.4 57.4 9.2 56.6 9.2H53.3L54.5 8V14.2Z" fill="#1F3059"/>
<path id="Vector_5" d="M66.2999 16.1H72.3999V18.2H63.7V7H72.2V9.09999H66.2999V16.1ZM66.0999 11.5H71.5V13.5H66.0999V11.5Z" fill="#1F3059"/>
<path id="Vector_6" d="M74.5 18.2V7H79.4C80.4 7 81.3 7.2 82 7.5C82.7 7.8 83.3 8.29999 83.7 8.89999C84.1 9.49999 84.3 10.2 84.3 11.1C84.3 11.9 84.1 12.7 83.7 13.3C83.3 13.9 82.7 14.4 82 14.7C81.3 15 80.4 15.2 79.4 15.2H75.9L77.1 14.1V18.4H74.5V18.2ZM77.1 14.2L75.9 13H79.2C80 13 80.6 12.8 81 12.5C81.4 12.2 81.6 11.7 81.6 11.1C81.6 10.5 81.4 10 81 9.7C80.6 9.4 80 9.2 79.2 9.2H75.9L77.1 8V14.2ZM81.6 18.2L78.8 14.1H81.6L84.4 18.2H81.6Z" fill="#1F3059"/>
<path id="Vector_7" d="M88.8999 18.2H86.2999V7H88.8999V18.2ZM94.1999 13.6H88.6999V11.4H94.1999V13.6ZM93.9999 7H96.5999V18.2H93.9999V7Z" fill="#1F3059"/>
<path id="Vector_8" d="M99.2 18.2V7H101.8V18.2H99.2Z" fill="#1F3059"/>
<path id="Vector_9" d="M106.8 18.2V9.09999H103.2V7H113V9.09999H109.4V18.2H106.8Z" fill="#1F3059"/>
</g>
</g>
<path id="Vector_10" d="M23.2999 10.8001L22.6999 10.1001C22.4999 9.90009 22.3999 9.70009 22.3999 9.40009L22.2999 8.5001C22.1999 7.3001 21.2999 6.3001 19.9999 6.2001L19.0999 6.10009C18.8999 6.10009 18.5999 6.0001 18.3999 5.8001L17.6999 5.2001C16.7999 4.4001 15.3999 4.4001 14.4999 5.2001L13.7999 5.8001C13.5999 6.0001 13.3999 6.10009 13.0999 6.10009L12.1999 6.2001C10.9999 6.3001 9.99993 7.2001 9.89993 8.5001L9.79993 9.40009C9.79993 9.60009 9.69993 9.90009 9.49993 10.1001L8.89993 10.8001C8.09993 11.7001 8.09993 13.1001 8.89993 14.0001L9.49993 14.7001C9.69993 14.9001 9.79993 15.1001 9.79993 15.4001L9.89993 16.3001C9.99993 17.5001 10.8999 18.5001 12.1999 18.6001L13.0999 18.7001C13.2999 18.7001 13.5999 18.8001 13.7999 19.0001L14.4999 19.6001C14.9999 20.0001 15.4999 20.2001 16.0999 20.2001C16.6999 20.2001 17.1999 20.0001 17.6999 19.6001L18.3999 19.0001C18.5999 18.8001 18.7999 18.7001 19.0999 18.7001L19.9999 18.6001C21.1999 18.5001 22.1999 17.6001 22.2999 16.3001L22.3999 15.4001C22.3999 15.2001 22.4999 14.9001 22.6999 14.7001L23.2999 14.0001C24.0999 13.1001 24.0999 11.7001 23.2999 10.8001ZM13.9999 8.7001C14.6999 8.7001 15.2999 9.3001 15.2999 10.0001C15.2999 10.7001 14.6999 11.3001 13.9999 11.3001C13.2999 11.3001 12.6999 10.7001 12.6999 10.0001C12.6999 9.2001 13.1999 8.7001 13.9999 8.7001ZM14.2999 15.5001C14.1999 15.6001 13.9999 15.7001 13.7999 15.7001C13.5999 15.7001 13.3999 15.6001 13.2999 15.5001C12.9999 15.2001 12.9999 14.7001 13.2999 14.4001L18.4999 9.2001C18.7999 8.9001 19.2999 8.9001 19.5999 9.2001C19.8999 9.5001 19.8999 10.0001 19.5999 10.3001L14.2999 15.5001ZM18.7999 16.1001C18.0999 16.1001 17.4999 15.5001 17.4999 14.8001C17.4999 14.1001 18.0999 13.5001 18.7999 13.5001C19.4999 13.5001 20.0999 14.1001 20.0999 14.8001C20.0999 15.5001 19.4999 16.1001 18.7999 16.1001Z" fill="#D84E55"/>
</g>
</g>
</svg>
